<?xml version="1.0" encoding="UTF-8" standalone="no"?>
<!DOCTYPE svg PUBLIC "-//W3C//DTD SVG 1.1//EN" "http://www.w3.org/Graphics/SVG/1.1/DTD/svg11.dtd">
<svg width="100%" height="100%" viewBox="0 0 220 69" version="1.1" xmlns="http://www.w3.org/2000/svg" xmlns:xlink="http://www.w3.org/1999/xlink" xml:space="preserve" xmlns:serif="http://www.serif.com/" style="fill-rule:evenodd;clip-rule:evenodd;stroke-linejoin:round;stroke-miterlimit:2;">
    <g transform="matrix(1,0,0,1,-549.531,-464.374)">
        <g id="about" transform="matrix(0.44,0,0,0.138,549.531,464.374)">
            <rect x="0" y="0" width="500" height="500" style="fill:none;"/>
            <g transform="matrix(1.63501,0,0,1.63501,-81.1086,-232.886)">
                <g transform="matrix(2.27273,0,0,7.24638,-1248.93,-3365.03)">
                    <path d="M610.753,514.424C611.031,514.826 611.057,515.372 610.777,515.809C610.404,516.39 609.63,516.559 609.05,516.186C608.653,515.932 608.274,515.374 608.248,514.501C608.205,513.111 609.086,510.234 609.154,509.778C609.994,504.184 610.261,498.456 610.712,492.817C610.785,491.911 610.922,489.175 611.752,487.61C612.314,486.549 613.16,485.927 614.242,485.927C614.739,485.927 615.362,486.205 615.767,486.999C616.306,488.056 616.643,490.729 616.715,491.125C617.782,496.993 618.634,502.896 619.656,508.77C619.752,509.324 620.378,513.113 620.609,514.517C620.761,514.724 620.85,514.979 620.85,515.254C620.85,516.089 620.461,516.426 620.375,516.498C619.922,516.879 619.429,516.935 618.896,516.601C618.789,516.534 618.452,516.296 618.289,515.718C618.017,514.751 617.316,509.908 617.193,509.198C616.172,503.331 615.321,497.433 614.255,491.573C614.211,491.329 614.086,490.043 613.842,489.036C613.811,489.11 613.783,489.187 613.755,489.266C613.302,490.586 613.256,492.367 613.204,493.016C612.748,498.713 612.474,504.498 611.627,510.149C611.582,510.448 611.167,511.82 610.913,513.095C610.819,513.566 610.769,514.203 610.753,514.424Z" style="fill:rgb(37,57,55);"/>
                </g>
                <g transform="matrix(2.27273,0,0,7.24638,-1248.93,-3365.03)">
                    <path d="M612.886,508.682C612.649,509.063 612.214,509.304 611.736,509.27C610.958,509.214 610.643,508.823 610.521,508.639C610.336,508.359 610.273,508.057 610.321,507.735C610.353,507.516 610.445,507.246 610.697,506.989C610.856,506.826 611.315,506.541 611.97,506.314C613.014,505.952 614.672,505.579 615.485,505.579C616.175,505.579 616.735,506.139 616.735,506.829C616.735,507.519 616.175,508.079 615.485,508.079C614.949,508.079 613.626,508.456 612.886,508.682Z" style="fill:rgb(37,57,55);"/>
                </g>
                <g transform="matrix(2.27273,0,0,7.24638,-1248.93,-3365.03)">
                    <path d="M627.366,514.742C627.152,514.968 626.854,515.114 626.52,515.131C625.855,515.164 625.281,514.67 625.214,514.007C625.214,514.007 625.084,512.701 625.018,512.048C624.893,510.797 624.569,509.522 624.266,508.308C623.298,504.436 622.463,500.449 622.67,496.435C622.705,495.746 623.293,495.215 623.982,495.251C624.671,495.286 625.202,495.874 625.166,496.563C625.004,499.72 625.547,502.856 626.262,505.927C626.291,505.872 626.32,505.819 626.35,505.766C627.002,504.642 627.955,504.044 629.182,504.22C630.389,504.392 631.5,505.445 632.194,506.935C632.706,508.034 633.012,509.346 633.053,510.465C633.086,511.355 632.942,512.136 632.671,512.678C632.073,513.873 631.066,514.424 629.895,514.636C629.079,514.784 628.173,514.745 627.366,514.742ZM627.708,512.247C628.281,512.26 628.89,512.277 629.449,512.176C629.85,512.103 630.23,511.969 630.435,511.56C630.557,511.316 630.569,510.957 630.555,510.557C630.525,509.744 630.3,508.79 629.927,507.99C629.745,507.599 629.531,507.245 629.274,506.983C629.137,506.842 628.999,506.719 628.829,506.695C628.743,506.682 628.698,506.758 628.645,506.824C628.494,507.012 628.38,507.261 628.28,507.534C627.768,508.923 627.708,510.873 627.708,511.531L627.708,512.247Z" style="fill:rgb(37,57,55);"/>
                </g>
                <g transform="matrix(2.27273,0,0,7.24638,-1248.93,-3365.03)">
                    <path d="M639.618,506.919C639.751,506.994 639.873,507.096 639.975,507.223C640.954,508.448 641.759,510.748 641.652,512.612C641.585,513.761 641.181,514.751 640.444,515.396C639.712,516.037 638.61,516.412 636.99,516.088C635.202,515.73 634.054,514.393 633.556,512.682C632.886,510.378 633.494,507.43 634.98,505.945C635.24,505.684 635.713,505.45 636.336,505.41C637.109,505.36 638.208,505.587 638.713,505.82C639.319,506.1 639.553,506.546 639.618,506.919ZM636.555,507.93C635.92,508.739 635.676,510.041 635.807,511.219C635.931,512.336 636.388,513.418 637.48,513.637C638.071,513.755 638.498,513.755 638.777,513.532C638.946,513.397 639.029,513.188 639.086,512.959C639.179,512.582 639.18,512.149 639.13,511.706C639.005,510.616 638.562,509.46 638.023,508.785C637.887,508.616 637.802,508.421 637.768,508.221C637.695,508.179 637.627,508.13 637.564,508.075L636.555,507.93ZM637.15,506.986C637.135,507.102 637.136,507.221 637.158,507.341C637.138,507.226 637.135,507.107 637.15,506.986ZM637.151,506.98L637.16,506.919C637.156,506.939 637.153,506.959 637.151,506.98Z" style="fill:rgb(37,57,55);"/>
                </g>
                <g transform="matrix(2.27273,0,0,7.24638,-1248.93,-3365.03)">
                    <path d="M656.346,502.415C656.355,501.787 656.363,501.167 656.363,500.558C656.363,499.178 657.782,499.201 657.813,499.206C657.874,499.215 658.788,499.36 658.865,500.364C658.88,500.554 658.91,501.923 658.857,502.446C658.85,502.514 658.843,502.581 658.836,502.649C658.767,506.006 658.666,509.586 659.77,512.679C660.154,513.752 660.73,514.496 661.43,514.558C662.066,514.615 662.532,513.986 662.894,512.9C663.112,512.245 663.82,511.891 664.475,512.109C665.129,512.327 665.484,513.036 665.265,513.69C664.403,516.277 662.721,517.184 661.207,517.048C659.761,516.919 658.208,515.736 657.416,513.519C657.226,512.987 657.067,512.441 656.936,511.885C656.805,512.219 656.663,512.545 656.509,512.856C655.495,514.905 653.968,516.308 651.931,516.308C650.449,516.308 649.463,515.761 648.813,514.899C648.067,515.828 647.06,516.339 645.807,516.088C644.787,515.884 643.988,514.955 643.623,513.527C643.143,511.653 643.337,508.518 643.397,507.714C643.391,507.617 643.395,507.519 643.412,507.42C643.692,505.781 645.627,506.752 645.681,506.829C645.707,506.866 645.939,507.131 645.909,507.664C645.89,507.99 645.654,510.269 645.899,512.125C645.955,512.546 646.034,512.942 646.157,513.273C646.206,513.404 646.318,513.584 646.356,513.645C646.724,513.68 646.916,513.309 647.105,512.97C647.448,512.355 647.642,511.595 647.722,511.028C647.678,509.922 647.742,508.825 647.742,508.004L647.742,507.939L647.743,507.899C647.772,506.502 648.382,506.237 648.992,506.453C649.602,506.237 650.212,506.502 650.24,507.899L650.242,507.939L650.242,510.944C650.242,510.985 650.24,511.027 650.236,511.068L650.216,511.238C650.238,511.555 650.275,511.867 650.333,512.166C650.5,513.037 650.863,513.808 651.931,513.808C653.038,513.808 653.717,512.861 654.268,511.747C655.378,509.505 655.783,506.398 655.982,504.9C656.093,504.07 656.251,503.247 656.346,502.415ZM645.864,507.905L645.858,507.927L645.863,507.908L645.864,507.905Z" style="fill:rgb(37,57,55);"/>
                </g>
                <g transform="matrix(2.27273,0,0,7.24638,-1248.93,-3365.03)">
                    <path d="M659.334,510.453C659.231,510.507 659.119,510.547 658.999,510.57C657.683,510.828 657.344,509.638 657.335,509.586C657.316,509.473 657.192,508.532 658.177,508.181C658.449,508.084 660.456,507.573 661.229,507.38C661.898,507.212 662.578,507.62 662.745,508.289C662.912,508.958 662.505,509.638 661.835,509.805C661.294,509.94 659.95,510.291 659.334,510.453Z" style="fill:rgb(37,57,55);"/>
                </g>
                <g transform="matrix(2.27273,0,0,7.24638,-1248.93,-3365.03)">
                    <path d="M604.663,521.834C605.918,521.85 609.545,521.715 610.282,521.651C614.01,521.327 617.747,521.098 621.482,520.865C633.707,520.101 645.848,519.861 658.068,520.472C661.142,520.626 664.263,520.531 667.313,520.866C667.388,520.86 667.956,520.82 668.329,520.807C668.821,520.79 669.291,520.834 669.582,520.932C670.332,521.185 670.62,521.721 670.62,522.308C670.62,522.998 670.06,523.558 669.37,523.558C669.096,523.558 668.842,523.47 668.636,523.32C668.234,523.338 667.279,523.377 667.077,523.355C664.064,523.02 660.981,523.121 657.943,522.969C645.817,522.363 633.77,522.602 621.637,523.36C617.923,523.592 614.207,523.819 610.499,524.141C609.558,524.223 604.303,524.369 603.923,524.278C603.299,524.127 603.11,523.702 603.037,523.52C602.867,523.099 602.858,522.623 603.311,522.167C603.378,522.099 603.579,521.886 604.041,521.796C604.256,521.755 604.469,521.771 604.663,521.834ZM604.578,524.237L604.516,524.251C604.538,524.247 604.558,524.242 604.578,524.237ZM604.634,524.222L604.581,524.237L604.615,524.228L604.634,524.222ZM604.759,524.178C604.739,524.185 604.72,524.193 604.7,524.2L604.659,524.214C604.714,524.197 604.764,524.177 604.809,524.156L604.759,524.178ZM604.859,524.131L604.849,524.136L604.859,524.131ZM668.125,522.412L668.125,522.418L668.123,522.395L668.125,522.412ZM668.122,522.366L668.12,522.308C668.12,522.328 668.121,522.347 668.122,522.366Z" style="fill:rgb(37,57,55);"/>
                </g>
            </g>
        </g>
    </g>
</svg>
