<?xml version="1.0" encoding="UTF-8" standalone="no"?>
<!DOCTYPE svg PUBLIC "-//W3C//DTD SVG 1.1//EN" "http://www.w3.org/Graphics/SVG/1.1/DTD/svg11.dtd">
<svg width="100%" height="100%" viewBox="0 0 220 69" version="1.1" xmlns="http://www.w3.org/2000/svg" xmlns:xlink="http://www.w3.org/1999/xlink" xml:space="preserve" xmlns:serif="http://www.serif.com/" style="fill-rule:evenodd;clip-rule:evenodd;stroke-linejoin:round;stroke-miterlimit:2;">
    <g transform="matrix(1,0,0,1,-548.303,-252.296)">
        <g id="contact" transform="matrix(0.44,0,0,0.138,548.303,252.296)">
            <rect x="0" y="0" width="500" height="500" style="fill:none;"/>
            <g transform="matrix(1.16145,0,0,1.16145,-55.5318,-117.944)">
                <g transform="matrix(2.27273,0,0,7.24638,-1246.14,-1828.23)">
                    <path d="M603.997,277.814C602.876,278.041 601.843,277.517 600.788,277.267C599.112,276.87 597.432,276.824 595.597,278.43C592.603,281.049 589.884,287.175 590.127,292.255C590.305,295.982 591.985,299.144 595.885,300.344C599.704,301.519 602.925,300.207 606.324,298.847C607.071,298.548 607.435,297.699 607.137,296.952C606.838,296.204 605.988,295.84 605.241,296.139C602.464,297.25 599.862,298.516 596.743,297.556C594.158,296.761 593.159,294.586 593.04,292.116C592.838,287.902 595.034,282.797 597.517,280.625C598.682,279.605 599.75,279.993 600.814,280.289C602.038,280.63 603.275,280.936 604.576,280.673C605.365,280.513 605.876,279.742 605.716,278.954C605.556,278.165 604.785,277.654 603.997,277.814Z" style="fill:rgb(37,57,55);"/>
                </g>
                <g transform="matrix(2.27273,0,0,7.24638,-1246.14,-1828.23)">
                    <path d="M617.24,287.296C617.695,287.311 618.135,287.537 618.407,287.944C619.726,289.923 619.644,293.242 618.395,295.647C617.575,297.224 616.285,298.381 614.733,298.707C613.667,298.93 612.45,298.786 611.129,298.031C609.452,297.073 608.717,295.171 608.813,293.035C608.939,290.216 610.554,287.103 612.316,286.046C612.596,285.878 613.051,285.731 613.606,285.704C614.477,285.662 615.664,285.902 616.332,286.304C616.786,286.576 617.081,286.931 617.24,287.296ZM613.689,288.632C613.337,288.888 613.024,289.303 612.743,289.783C612.175,290.754 611.778,292.002 611.727,293.165C611.683,294.128 611.819,295.067 612.576,295.499C613.152,295.828 613.67,295.949 614.134,295.852C614.876,295.696 615.415,295.056 615.806,294.302C616.554,292.862 616.78,290.892 616.044,289.664C615.788,289.691 615.523,289.651 615.273,289.535C614.926,289.372 614.673,289.09 614.54,288.76L613.689,288.632ZM614.548,287.647L614.57,287.596C614.562,287.613 614.554,287.63 614.548,287.647Z" style="fill:rgb(37,57,55);"/>
                </g>
                <g transform="matrix(2.27273,0,0,7.24638,-1246.14,-1828.23)">
                    <path d="M621.903,288.342C621.944,287.819 622.02,287.314 622.144,286.855C622.512,285.482 623.272,284.46 624.421,284C625.716,283.482 626.806,283.544 627.719,283.94C628.938,284.467 629.898,285.698 630.519,287.358C631.735,290.609 631.762,295.607 631.762,297.25C631.762,298.055 631.108,298.709 630.303,298.709C629.499,298.709 628.845,298.055 628.845,297.25C628.845,295.778 628.877,291.293 627.787,288.381C627.485,287.574 627.154,286.873 626.561,286.617C626.267,286.49 625.921,286.541 625.504,286.708C625.278,286.798 625.171,287.023 625.073,287.268C624.946,287.586 624.872,287.953 624.825,288.342C624.609,290.148 625.003,292.358 625.183,293.348C625.197,293.426 625.215,293.509 625.237,293.595C625.732,295.019 626.315,296.464 626.315,296.464C626.611,297.2 626.264,298.038 625.534,298.349C624.804,298.66 623.959,298.331 623.633,297.607C623.633,297.607 622.828,295.795 622.455,294.463C622.21,293.755 621.984,293.051 621.848,292.506C621.795,292.294 621.57,290.989 621.483,290.484C621.032,289.891 621.1,289.04 621.66,288.527C621.74,288.454 621.821,288.393 621.903,288.342Z" style="fill:rgb(37,57,55);"/>
                </g>
                <g transform="matrix(2.27273,0,0,7.24638,-1246.14,-1828.23)">
                    <path d="M637.257,296.387C637.325,296.35 637.558,296.214 637.732,296.055C638.065,295.752 638.417,295.318 638.801,294.742C639.248,294.072 640.154,293.891 640.824,294.338C641.493,294.784 641.675,295.69 641.228,296.36C639.609,298.789 638.063,299.404 636.968,299.302C636.043,299.216 635.198,298.666 634.553,297.683C633.516,296.102 632.972,293.156 632.972,290.938C632.972,289.274 633.082,287.615 633.22,285.961C633.274,285.316 633.525,283.904 633.758,283.228C633.908,282.793 634.115,282.508 634.252,282.371C634.826,281.796 635.434,281.815 635.956,282.054C636.198,282.164 636.663,282.424 636.853,283.207C636.983,283.742 636.799,284.279 636.421,284.627C636.31,285.13 636.153,285.883 636.127,286.204C635.996,287.776 635.889,289.355 635.889,290.938C635.889,292.391 636.141,294.255 636.707,295.544C636.822,295.807 636.948,296.041 637.096,296.228C637.139,296.282 637.218,296.354 637.257,296.387Z" style="fill:rgb(37,57,55);"/>
                </g>
                <g transform="matrix(2.27273,0,0,7.24638,-1246.14,-1828.23)">
                    <path d="M634.644,289.399C634.959,288.677 635.795,288.334 636.528,288.632C636.855,288.765 637.108,289.003 637.263,289.292C637.371,289.424 637.457,289.577 637.514,289.749C637.768,290.512 637.355,291.339 636.591,291.593C634.833,292.179 634.417,290.82 634.365,290.593C634.323,290.41 634.311,290.203 634.356,289.975C634.375,289.88 634.528,289.6 634.644,289.399ZM634.654,289.382C634.721,289.263 634.774,289.175 634.774,289.175C634.774,289.175 634.699,289.295 634.654,289.382Z" style="fill:rgb(37,57,55);"/>
                </g>
                <g transform="matrix(2.27273,0,0,7.24638,-1246.14,-1828.23)">
                    <path d="M647.123,286.088C647.308,285.557 647.678,285.355 647.789,285.293C648.215,285.052 648.639,285.043 649.056,285.212C649.283,285.304 649.598,285.478 649.816,285.916C650.253,286.79 650.487,288.092 650.449,289.554C650.421,290.656 650.246,291.853 649.933,293C650.007,293.522 650.105,294.048 650.236,294.551C650.459,295.412 650.75,296.212 651.243,296.705C651.812,297.274 651.812,298.198 651.243,298.767C650.674,299.336 649.749,299.336 649.18,298.767C648.711,298.298 648.316,297.679 647.995,296.966C646.728,298.484 645.025,299.228 643.013,298.653C640.824,298.027 639.913,295.85 640.195,293.237C640.397,291.367 641.192,289.303 642.212,287.847C643.043,286.658 644.058,285.875 645.002,285.639C646.044,285.378 646.667,285.644 647.123,286.088ZM645.35,288.651C645.09,288.847 644.848,289.166 644.601,289.519C643.839,290.608 643.246,292.152 643.095,293.55C643.037,294.089 643.043,294.603 643.157,295.046C643.253,295.42 643.433,295.739 643.814,295.848C644.971,296.179 645.757,295.299 646.349,294.212C646.591,293.766 646.797,293.274 646.966,292.76C646.85,291.721 646.811,290.735 646.811,289.967L646.816,289.817C646.703,289.798 646.591,289.764 646.482,289.716C646.035,289.518 645.704,289.204 645.449,288.815C645.419,288.769 645.385,288.712 645.35,288.651Z" style="fill:rgb(37,57,55);"/>
                </g>
                <g transform="matrix(2.27273,0,0,7.24638,-1246.14,-1828.23)">
                    <path d="M662.98,291.032C662.919,289.084 663.103,287.131 663.333,285.404C663.431,284.671 663.471,282.734 663.88,281.5C664.218,280.482 664.842,279.83 665.531,279.601C665.983,279.45 666.391,279.507 666.764,279.715C667.015,279.855 667.31,280.106 667.487,280.573C667.609,280.894 667.69,281.685 667.645,282.655C667.565,284.372 667.24,286.814 667.175,287.116C666.877,288.507 666.459,290.095 665.87,291.636C665.984,293.46 666.406,295.224 667.422,296.646C667.883,297.292 668.757,297.339 669.49,297.131C670.174,296.937 670.846,296.505 670.846,295.794C670.846,294.989 671.5,294.335 672.305,294.335C673.109,294.335 673.763,294.989 673.763,295.794C673.763,297.814 672.228,299.385 670.288,299.937C668.398,300.474 666.238,300.007 665.048,298.341C664.467,297.526 664.033,296.62 663.717,295.658C662.049,297.848 659.747,299.257 656.621,298.944C654.934,298.776 653.769,298.113 652.988,297.215C652.209,296.318 651.803,295.154 651.739,293.868C651.63,291.664 652.563,289.079 653.929,287.293C655.234,285.588 656.952,284.665 658.487,284.885C659.579,285.041 660.71,285.726 661.595,287.36C661.979,288.067 661.716,288.953 661.008,289.337C660.3,289.72 659.414,289.457 659.031,288.749C658.726,288.187 658.45,287.826 658.074,287.772C657.84,287.738 657.61,287.844 657.378,287.984C656.973,288.229 656.593,288.612 656.245,289.066C655.275,290.334 654.575,292.158 654.652,293.724C654.682,294.323 654.826,294.883 655.19,295.302C655.553,295.72 656.126,295.963 656.912,296.042C659.184,296.269 660.726,294.987 661.832,293.27C662.278,292.579 662.656,291.818 662.98,291.032Z" style="fill:rgb(37,57,55);"/>
                </g>
                <g transform="matrix(2.27273,0,0,7.24638,-1246.14,-1828.23)">
                    <path d="M665.229,289.85C665.835,289.64 668.184,288.819 668.496,288.663C669.216,288.303 670.093,288.595 670.453,289.315C670.813,290.035 670.52,290.911 669.801,291.271C669.332,291.505 666.566,292.705 665.325,292.807C664.185,292.9 663.565,292.307 663.339,291.758C663.033,291.013 663.389,290.161 664.134,289.855C664.499,289.705 664.89,289.714 665.229,289.85ZM665.993,290.554L665.998,290.564L665.996,290.56L665.993,290.554Z" style="fill:rgb(37,57,55);"/>
                </g>
                <g transform="matrix(2.27273,0,0,7.24638,-1246.14,-1828.23)">
                    <path d="M703.484,289.415C703.538,289.267 703.589,289.118 703.636,288.972C704.539,286.157 705.474,282.102 705.613,281.579C705.653,281.43 706.44,278.934 707.167,278.078C707.815,277.316 708.581,277.215 709.183,277.416C709.897,277.654 710.511,278.299 710.852,279.278C711.274,280.487 711.298,282.351 711.381,282.976C711.658,285.056 711.574,287.785 711.644,290.458C711.707,292.843 711.869,295.185 712.697,296.841C713.057,297.561 712.764,298.438 712.044,298.798C711.325,299.158 710.448,298.865 710.088,298.145C709.285,296.539 708.931,294.412 708.795,292.142C708.613,289.097 708.812,285.777 708.49,283.362C708.463,283.156 708.446,282.803 708.418,282.384C708.182,283.301 706.696,289.646 705.636,291.957C705.291,292.709 704.883,293.164 704.603,293.348C704.024,293.728 703.471,293.706 702.971,293.456C702.099,293.02 701.302,291.938 700.758,290.451C699.839,287.941 699.443,284.164 699.065,282.841C699.049,282.785 698.966,282.459 698.838,282.041C698.709,282.545 698.616,283.105 698.545,283.693C698.2,286.561 698.396,290.018 698.279,291.535C698.18,292.828 698.372,295.548 698.293,296.056C698.137,297.059 697.387,297.285 697.106,297.341C696.875,297.387 695.762,297.521 695.342,296.178C695.233,295.832 695.261,295.475 695.394,295.166C695.361,294.273 695.299,292.253 695.371,291.312C695.511,289.491 695.236,284.956 695.893,281.834C696.264,280.074 696.986,278.72 697.959,278.071C698.334,277.821 698.719,277.745 699.1,277.784C699.479,277.822 699.898,277.991 700.275,278.377C700.555,278.662 700.856,279.151 701.103,279.725C701.517,280.687 701.834,281.916 701.869,282.04C702.189,283.16 702.516,286.063 703.174,288.431C703.27,288.775 703.372,289.107 703.484,289.415Z" style="fill:rgb(37,57,55);"/>
                </g>
                <g transform="matrix(2.27273,0,0,7.24638,-1246.14,-1828.23)">
                    <path d="M715.758,292.659C715.836,293.367 716.041,294.017 716.399,294.554C717.104,295.611 718.398,295.921 719.731,296.012C721.397,296.127 723.165,295.836 724.459,295.578C725.249,295.42 726.017,295.932 726.175,296.722C726.333,297.511 725.821,298.28 725.031,298.438C723.204,298.803 720.571,299.182 718.309,298.773C716.52,298.45 714.957,297.648 713.972,296.172C712.118,293.391 712.697,288.468 714.923,285.178C716.518,282.82 718.884,281.344 721.553,281.725C723.035,281.937 723.807,282.637 724.18,283.44C724.53,284.193 724.534,285.166 724.131,286.231C723.585,287.675 722.238,289.397 720.815,290.701C719.86,291.577 718.873,292.263 718.096,292.603C717.585,292.826 717.123,292.918 716.752,292.914C716.369,292.909 716.038,292.817 715.758,292.659ZM721.514,284.715C721.425,284.682 721.269,284.631 721.14,284.613C719.108,284.322 717.545,286.072 716.619,288.104C716.41,288.563 716.231,289.042 716.09,289.529C716.449,289.499 716.795,289.604 717.071,289.807C717.514,289.544 718.307,289.045 718.844,288.552C719.923,287.563 720.989,286.293 721.403,285.199C721.46,285.048 721.498,284.828 721.514,284.715Z" style="fill:rgb(37,57,55);"/>
                </g>
                <g transform="matrix(2.27273,0,0,7.24638,-1246.14,-1828.23)">
                    <path d="M589.582,314.982C599.614,314.883 609.783,312.638 619.776,311.568C649.997,308.33 680.733,306.821 711.073,308.418C717.883,308.776 725.064,308.736 731.789,309.857C732.583,309.989 733.335,309.452 733.467,308.658C733.6,307.864 733.062,307.112 732.268,306.98C725.437,305.841 718.144,305.869 711.226,305.505C680.732,303.9 649.84,305.413 619.466,308.668C609.566,309.728 599.492,311.968 589.553,312.065C588.749,312.073 588.102,312.733 588.109,313.538C588.117,314.343 588.777,314.99 589.582,314.982Z" style="fill:rgb(37,57,55);"/>
                </g>
            </g>
        </g>
    </g>
</svg>
