<?xml version="1.0" encoding="UTF-8" standalone="no"?>
<!DOCTYPE svg PUBLIC "-//W3C//DTD SVG 1.1//EN" "http://www.w3.org/Graphics/SVG/1.1/DTD/svg11.dtd">
<svg width="100%" height="100%" viewBox="0 0 220 69" version="1.1" xmlns="http://www.w3.org/2000/svg" xmlns:xlink="http://www.w3.org/1999/xlink" xml:space="preserve" xmlns:serif="http://www.serif.com/" style="fill-rule:evenodd;clip-rule:evenodd;stroke-linejoin:round;stroke-miterlimit:2;">
    <g transform="matrix(1,0,0,1,-548.303,-252.296)">
        <g id="Signiture" transform="matrix(0.44,0,0,0.138,548.303,252.296)">
            <rect x="0" y="0" width="500" height="500" style="fill:none;"/>
            <g transform="matrix(3.29374,0,0,10.5018,-1926.5,-2858.67)">
                <path d="M604.087,278.257C602.9,278.498 601.801,277.971 600.684,277.707C599.139,277.341 597.587,277.289 595.894,278.77C592.98,281.32 590.342,287.287 590.578,292.234C590.748,295.766 592.322,298.774 596.018,299.912C599.728,301.053 602.853,299.749 606.156,298.427C606.672,298.221 606.923,297.635 606.717,297.119C606.511,296.604 605.924,296.353 605.409,296.559C602.535,297.708 599.838,298.981 596.61,297.988C593.821,297.13 592.716,294.802 592.589,292.138C592.38,287.789 594.658,282.526 597.219,280.285C598.535,279.134 599.734,279.52 600.935,279.854C602.091,280.175 603.258,280.479 604.486,280.23C605.031,280.119 605.383,279.588 605.273,279.043C605.162,278.499 604.631,278.147 604.087,278.257Z" style="fill:white;"/>
            </g>
            <g transform="matrix(3.29374,0,0,10.5018,-1926.5,-2858.67)">
                <path d="M616.943,287.779C617.345,287.675 617.787,287.83 618.03,288.195C619.271,290.056 619.168,293.177 617.993,295.438C617.24,296.888 616.067,297.965 614.64,298.264C613.668,298.468 612.559,298.328 611.353,297.639C609.819,296.762 609.177,295.009 609.264,293.055C609.383,290.39 610.882,287.433 612.548,286.433C612.834,286.262 613.364,286.135 613.978,286.153C614.714,286.174 615.579,286.379 616.1,286.691C616.591,286.986 616.874,287.361 616.943,287.779ZM613.529,288.193C612.317,288.969 611.362,291.193 611.275,293.145C611.224,294.289 611.453,295.378 612.351,295.891C613.043,296.286 613.67,296.411 614.227,296.294C615.094,296.113 615.75,295.391 616.208,294.51C617.051,292.887 617.247,290.648 616.356,289.311C616.321,289.258 616.291,289.203 616.267,289.146C616.017,289.247 615.728,289.248 615.465,289.125C615.158,288.982 614.957,288.703 614.901,288.393L613.529,288.193Z" style="fill:white;"/>
            </g>
            <g transform="matrix(3.29374,0,0,10.5018,-1926.5,-2858.67)">
                <path d="M622.332,288.636C622.366,288.049 622.443,287.482 622.58,286.972C622.908,285.751 623.567,284.828 624.589,284.42C625.748,283.956 626.722,284.001 627.54,284.355C628.661,284.84 629.524,285.989 630.095,287.517C631.292,290.715 631.31,295.634 631.31,297.25C631.31,297.806 630.859,298.257 630.303,298.257C629.748,298.257 629.297,297.806 629.297,297.25C629.297,295.751 629.32,291.187 628.21,288.222C627.859,287.284 627.43,286.5 626.741,286.202C626.351,286.033 625.889,286.067 625.336,286.288C625.069,286.395 624.89,286.615 624.753,286.881C624.549,287.275 624.439,287.764 624.376,288.289C624.154,290.143 624.554,292.412 624.738,293.429C624.755,293.521 624.777,293.619 624.803,293.723C625.305,295.166 625.896,296.632 625.896,296.632C626.1,297.14 625.861,297.719 625.357,297.933C624.853,298.148 624.27,297.92 624.045,297.421C624.045,297.421 623.238,295.613 622.881,294.314C622.641,293.62 622.42,292.931 622.287,292.396C622.231,292.172 621.98,290.754 621.896,290.275C621.528,289.865 621.558,289.233 621.965,288.86C622.085,288.751 622.209,288.679 622.332,288.636Z" style="fill:white;"/>
            </g>
            <g transform="matrix(3.29374,0,0,10.5018,-1926.5,-2858.67)">
                <path d="M636.021,284.37C635.901,284.901 635.707,285.799 635.676,286.166C635.544,287.751 635.437,289.342 635.437,290.938C635.437,292.449 635.705,294.385 636.293,295.726C636.453,296.09 636.632,296.405 636.848,296.631C636.955,296.742 637.061,296.835 637.197,296.848C637.385,296.866 637.578,296.754 637.811,296.578C638.229,296.262 638.678,295.743 639.177,294.993C639.485,294.531 640.111,294.406 640.573,294.714C641.035,295.022 641.16,295.647 640.852,296.109C639.376,298.324 638.008,298.945 637.01,298.852C636.178,298.774 635.431,298.243 634.864,297.329C633.908,295.79 633.424,293.025 633.424,290.938C633.424,289.286 633.534,287.64 633.671,285.999C633.722,285.379 633.962,284.024 634.185,283.375C634.304,283.029 634.463,282.799 634.572,282.69C634.975,282.287 635.402,282.297 635.768,282.465C635.945,282.545 636.275,282.742 636.414,283.314C636.513,283.725 636.345,284.138 636.021,284.37Z" style="fill:white;"/>
            </g>
            <g transform="matrix(3.29374,0,0,10.5018,-1926.5,-2858.67)">
                <path d="M635.075,289.542C635.305,289.07 635.865,288.85 636.358,289.051C636.598,289.148 636.78,289.328 636.884,289.544C636.972,289.642 637.041,289.759 637.085,289.892C637.26,290.418 636.975,290.989 636.448,291.164C635.17,291.591 634.844,290.657 634.806,290.492C634.777,290.365 634.768,290.221 634.8,290.062C634.817,289.975 634.987,289.687 635.075,289.542Z" style="fill:white;"/>
            </g>
            <g transform="matrix(3.29374,0,0,10.5018,-1926.5,-2858.67)">
                <path d="M647.413,287.287C647.443,286.881 647.474,286.554 647.499,286.425C647.598,285.918 647.922,285.737 648.011,285.687C648.305,285.52 648.598,285.514 648.886,285.631C649.043,285.694 649.261,285.815 649.412,286.118C649.823,286.94 650.033,288.167 649.997,289.543C649.969,290.639 649.791,291.832 649.473,292.97C649.55,293.539 649.656,294.115 649.798,294.664C650.043,295.611 650.381,296.482 650.923,297.024C651.316,297.417 651.316,298.055 650.923,298.447C650.53,298.84 649.893,298.84 649.5,298.447C648.912,297.859 648.453,297.016 648.116,296.05C646.927,297.831 645.222,298.814 643.137,298.218C641.155,297.652 640.389,295.651 640.645,293.286C640.839,291.489 641.602,289.505 642.582,288.106C643.34,287.023 644.251,286.292 645.112,286.077C646.133,285.822 646.657,286.185 647.045,286.679C647.162,286.828 647.262,287.001 647.356,287.182C647.371,287.211 647.392,287.248 647.413,287.287ZM645.532,288.049C645.07,288.198 644.641,288.674 644.231,289.26C643.429,290.406 642.804,292.03 642.646,293.502C642.581,294.099 642.592,294.668 642.719,295.159C642.857,295.695 643.144,296.127 643.69,296.283C645.061,296.674 646.045,295.716 646.746,294.428C647.016,293.932 647.243,293.381 647.425,292.806C647.303,291.75 647.263,290.744 647.263,289.967C647.263,289.908 647.272,289.679 647.288,289.364C647.086,289.409 646.868,289.392 646.665,289.302C646.237,289.113 645.944,288.784 645.721,288.393C645.668,288.299 645.588,288.153 645.532,288.049Z" style="fill:white;"/>
            </g>
            <g transform="matrix(3.29374,0,0,10.5018,-1926.5,-2858.67)">
                <path d="M663.427,291.13C663.359,289.171 663.549,287.199 663.781,285.464C663.877,284.746 663.909,282.85 664.31,281.642C664.593,280.788 665.095,280.222 665.674,280.029C665.992,279.923 666.281,279.963 666.543,280.11C666.725,280.211 666.936,280.395 667.064,280.733C667.176,281.026 667.234,281.749 667.193,282.634C667.115,284.322 666.797,286.724 666.733,287.022C666.435,288.413 666.016,290.006 665.422,291.546C665.531,293.497 665.97,295.391 667.054,296.908C667.628,297.712 668.702,297.825 669.614,297.566C670.491,297.316 671.298,296.707 671.298,295.794C671.298,295.238 671.749,294.787 672.305,294.787C672.86,294.787 673.311,295.238 673.311,295.794C673.311,297.611 671.909,299.006 670.164,299.502C668.454,299.988 666.493,299.586 665.416,298.078C664.685,297.054 664.197,295.88 663.886,294.633C662.277,297.116 659.96,298.824 656.666,298.494C655.119,298.34 654.045,297.742 653.33,296.919C652.614,296.096 652.25,295.025 652.191,293.846C652.086,291.741 652.983,289.273 654.288,287.568C655.478,286.013 657.024,285.132 658.423,285.332C659.404,285.473 660.403,286.108 661.198,287.575C661.462,288.063 661.281,288.675 660.793,288.939C660.304,289.204 659.693,289.022 659.428,288.534C659.034,287.807 658.624,287.394 658.138,287.324C657.806,287.277 657.472,287.398 657.144,287.597C656.696,287.869 656.271,288.289 655.886,288.791C654.854,290.139 654.118,292.081 654.201,293.746C654.236,294.452 654.42,295.106 654.848,295.598C655.277,296.091 655.941,296.399 656.867,296.492C659.328,296.738 661.014,295.375 662.212,293.515C662.686,292.78 663.087,291.968 663.427,291.13Z" style="fill:white;"/>
            </g>
            <g transform="matrix(3.29374,0,0,10.5018,-1926.5,-2858.67)">
                <path d="M665.207,290.342C666.237,290.215 668.333,289.25 668.698,289.067C669.195,288.819 669.8,289.02 670.048,289.517C670.297,290.014 670.095,290.619 669.598,290.867C669.147,291.093 666.484,292.258 665.289,292.356C664.418,292.428 663.929,292.005 663.757,291.586C663.546,291.072 663.792,290.484 664.306,290.273C664.611,290.147 664.943,290.184 665.207,290.342Z" style="fill:white;"/>
            </g>
            <g transform="matrix(3.29374,0,0,10.5018,-1926.5,-2858.67)">
                <path d="M703.52,290.604C703.609,290.405 703.699,290.186 703.775,289.973C704.759,287.218 705.895,282.276 706.05,281.696C706.088,281.554 706.822,279.183 707.512,278.371C708.005,277.79 708.581,277.692 709.04,277.844C709.641,278.045 710.139,278.604 710.426,279.427C710.837,280.606 710.852,282.426 710.933,283.036C711.209,285.103 711.122,287.814 711.192,290.47C711.257,292.927 711.44,295.338 712.292,297.043C712.541,297.54 712.339,298.145 711.842,298.393C711.346,298.642 710.741,298.44 710.492,297.943C709.713,296.384 709.378,294.318 709.247,292.115C709.064,289.059 709.261,285.726 708.938,283.302C708.877,282.84 708.875,281.614 708.661,280.594C708.367,281.295 708.011,282.152 707.995,282.214C707.813,282.896 706.3,289.424 705.225,291.769C704.93,292.412 704.594,292.813 704.355,292.97C703.936,293.245 703.535,293.233 703.173,293.052C702.378,292.655 701.679,291.65 701.182,290.295C700.267,287.796 699.876,284.034 699.5,282.717C699.473,282.624 699.268,281.813 698.98,281.049C698.941,280.947 698.89,280.832 698.836,280.719C698.75,280.883 698.675,281.067 698.603,281.264C698.358,281.938 698.202,282.759 698.096,283.639C697.75,286.514 697.946,289.98 697.829,291.501C697.73,292.784 697.925,295.483 697.847,295.986C697.736,296.692 697.215,296.858 697.017,296.898C696.852,296.931 696.073,297.002 695.773,296.043C695.69,295.777 695.723,295.502 695.843,295.274C695.811,294.396 695.748,292.31 695.822,291.346C695.961,289.537 695.683,285.029 696.336,281.927C696.677,280.306 697.314,279.044 698.21,278.447C698.773,278.072 699.384,278.113 699.952,278.693C700.203,278.949 700.467,279.39 700.688,279.904C701.092,280.843 701.4,282.043 701.435,282.164C701.754,283.284 702.081,286.186 702.739,288.553C702.937,289.266 703.165,289.928 703.441,290.456C703.468,290.507 703.494,290.556 703.52,290.604Z" style="fill:white;"/>
            </g>
            <g transform="matrix(3.29374,0,0,10.5018,-1926.5,-2858.67)">
                <path d="M715.308,291.479C715.3,291.607 715.296,291.734 715.294,291.86C715.282,292.968 715.494,294.011 716.023,294.805C716.632,295.719 717.639,296.148 718.747,296.348C720.699,296.7 722.971,296.336 724.548,296.021C725.093,295.912 725.623,296.266 725.732,296.81C725.841,297.355 725.487,297.885 724.943,297.994C723.161,298.351 720.594,298.726 718.389,298.328C716.725,298.028 715.264,297.294 714.348,295.921C712.579,293.267 713.173,288.572 715.297,285.432C716.791,283.225 718.99,281.816 721.489,282.173C722.768,282.356 723.448,282.938 723.77,283.631C724.076,284.289 724.061,285.14 723.708,286.071C723.182,287.46 721.879,289.112 720.51,290.368C719.738,291.076 718.948,291.658 718.278,292.013C717.689,292.324 717.158,292.466 716.757,292.462C716.354,292.457 716.024,292.33 715.766,292.119C715.575,291.964 715.412,291.756 715.308,291.479ZM717.01,290.373C717.115,290.335 717.237,290.286 717.337,290.234C717.883,289.945 718.521,289.462 719.15,288.885C720.281,287.847 721.391,286.507 721.826,285.359C721.954,285.02 722.056,284.719 721.945,284.479C721.849,284.273 721.584,284.22 721.204,284.165C719.465,283.917 718.004,285.023 716.964,286.559C716.22,287.66 715.691,288.994 715.446,290.328C715.589,290.161 715.788,290.039 716.021,289.994C716.408,289.92 716.786,290.079 717.01,290.373Z" style="fill:white;"/>
            </g>
            <g transform="matrix(3.29374,0,0,10.5018,-1926.5,-2858.67)">
                <path d="M589.578,314.53C599.595,314.431 609.75,312.187 619.728,311.118C649.973,307.878 680.733,306.368 711.097,307.967C717.923,308.326 725.122,308.287 731.863,309.411C732.411,309.502 732.93,309.132 733.021,308.584C733.113,308.036 732.742,307.517 732.194,307.426C725.379,306.29 718.103,306.32 711.202,305.957C680.732,304.353 649.864,305.865 619.514,309.117C609.599,310.18 599.511,312.42 589.558,312.517C589.002,312.523 588.556,312.978 588.561,313.533C588.567,314.089 589.022,314.535 589.578,314.53Z" style="fill:white;"/>
            </g>
        </g>
    </g>
</svg>
