<?xml version="1.0" encoding="UTF-8" standalone="no"?>
<!DOCTYPE svg PUBLIC "-//W3C//DTD SVG 1.1//EN" "http://www.w3.org/Graphics/SVG/1.1/DTD/svg11.dtd">
<svg width="100%" height="100%" viewBox="0 0 220 69" version="1.1" xmlns="http://www.w3.org/2000/svg" xmlns:xlink="http://www.w3.org/1999/xlink" xml:space="preserve" xmlns:serif="http://www.serif.com/" style="fill-rule:evenodd;clip-rule:evenodd;stroke-linejoin:round;stroke-miterlimit:2;">
    <g transform="matrix(1,0,0,1,-548.541,-170.434)">
        <g id="Signiture" transform="matrix(0.44,0,0,0.138,548.541,170.434)">
            <rect x="0" y="0" width="500" height="500" style="fill:none;"/>
            <g transform="matrix(3.27425,0,0,10.4396,-1817.13,-2060.45)">
                <path d="M623.889,215.783C623.569,213.317 622.766,209.012 622.903,205.32C623.014,202.302 623.812,199.697 625.665,198.462C626.555,197.868 627.308,197.814 627.916,197.993C628.495,198.164 628.984,198.576 629.352,199.158C629.757,199.798 630.018,200.661 630.157,201.429C630.882,205.412 630.008,210.226 625.67,210.923C625.716,211.911 625.751,213.245 625.768,213.489C625.818,214.192 625.862,214.897 625.905,215.602C625.933,215.809 625.956,216.003 625.975,216.181C626.137,217.724 626.465,219.268 626.605,220.808C626.66,221.411 626.608,222.623 626.608,222.623C626.585,223.14 626.175,223.556 625.659,223.588C625.142,223.619 624.685,223.256 624.599,222.746C624.599,222.746 624.261,220.744 624.17,219.734C624.051,218.425 623.97,217.103 623.889,215.783ZM625.038,208.96C626.878,208.771 627.798,207.501 628.161,205.937C628.464,204.634 628.411,203.143 628.165,201.791C628.074,201.29 627.927,200.723 627.673,200.292C627.58,200.135 627.494,199.98 627.343,199.935C627.186,199.889 627.018,199.993 626.788,200.146C626.151,200.571 625.739,201.255 625.454,202.076C625.121,203.038 624.971,204.18 624.926,205.395C624.883,206.548 624.936,207.763 625.038,208.96Z" style="fill:white;"/>
            </g>
            <g transform="matrix(3.27425,0,0,10.4396,-1900.2,-2051.69)">
                <path d="M597.687,218.208C597.739,218.369 597.751,218.546 597.714,218.723C597.537,219.567 596.939,219.695 596.861,219.71C596.543,219.774 596.232,219.713 595.955,219.445C595.892,219.384 595.639,219.13 595.632,218.615C595.622,217.912 595.966,214.398 596.089,213.782C596.808,210.187 597.432,206.547 598.413,203.017C598.429,202.958 599.579,199.457 600.408,198.436C600.813,197.938 601.277,197.794 601.61,197.81C601.891,197.823 602.166,197.924 602.41,198.169C603.079,198.837 603.493,200.077 603.637,201.599C603.914,204.518 603.336,208.581 603.336,210.207C603.336,210.615 603.327,211.596 603.529,212.365C603.567,212.51 603.659,212.707 603.702,212.796C603.834,212.784 603.943,212.667 604.063,212.547C604.42,212.191 604.731,211.644 605.02,211.02C606.046,208.808 606.708,205.695 607.037,204.819C607.113,204.616 607.987,202.266 608.695,201.515C609.252,200.924 609.862,200.893 610.324,201.124C610.734,201.329 611.109,201.837 611.247,202.58C611.415,203.478 611.303,204.824 611.303,205.175C611.303,208.528 611.734,211.836 611.931,215.179C611.947,215.462 611.946,217.098 612.095,218.271C612.12,218.472 612.177,218.73 612.212,218.878C612.426,219.063 612.561,219.337 612.561,219.642C612.561,220.201 612.108,220.654 611.549,220.654C611.14,220.654 610.542,220.375 610.282,219.523C609.951,218.438 609.932,215.687 609.91,215.298C609.711,211.915 609.279,208.568 609.279,205.175C609.279,205.089 609.288,204.935 609.298,204.741C609.106,205.147 608.953,205.475 608.933,205.53C608.535,206.591 607.634,210.802 606.246,213.013C605.382,214.389 604.267,215.038 603.126,214.753C602.528,214.604 602.039,214.132 601.745,213.411C601.337,212.405 601.311,210.812 601.311,210.207C601.311,208.832 601.737,205.692 601.686,203.01C601.671,202.186 601.61,201.408 601.467,200.754L601.443,200.653C600.892,201.844 600.374,203.522 600.364,203.559C599.396,207.041 598.784,210.632 598.075,214.179C597.984,214.632 597.767,217.224 597.687,218.208ZM611.875,218.684C611.767,218.643 611.655,218.63 611.549,218.63C611.663,218.63 611.772,218.649 611.875,218.684Z" style="fill:white;"/>
            </g>
            <g transform="matrix(3.27425,0,0,10.4396,-1900.2,-2051.69)">
                <path d="M624.447,217.292C623.289,219.176 621.175,220.45 618.819,219.777C617.635,219.438 616.901,218.452 616.572,217.109C615.981,214.701 616.749,211.048 617.015,210.159C617.228,209.448 617.768,209.292 617.83,209.278C618.108,209.215 618.36,209.263 618.589,209.404C618.738,209.496 618.918,209.649 619.018,209.943C619.035,209.993 619.108,210.312 618.972,210.932C618.942,211.067 618.887,211.19 618.812,211.297C618.581,212.303 618.263,214.172 618.403,215.766C618.452,216.331 618.555,216.858 618.77,217.273C618.907,217.537 619.091,217.749 619.375,217.83C621.285,218.376 622.831,216.743 623.246,214.994C622.961,214.446 622.697,213.876 622.537,213.34C622.275,212.46 622.279,211.644 622.595,211.012C622.85,210.502 623.232,210.395 623.504,210.373C623.802,210.349 624.31,210.444 624.623,211.064C624.832,211.477 625.075,212.619 625.213,213.496C625.301,214.056 625.339,214.519 625.345,214.672C625.755,215.427 626.166,216.111 626.335,216.561C627.612,219.965 628.774,223.395 628.278,227.114C627.934,229.692 625.604,232.1 623.054,233.033C621.425,233.629 619.73,233.624 618.391,232.836C617.479,232.301 616.709,231.403 616.25,230.026C616.073,229.496 616.36,228.923 616.89,228.746C617.42,228.569 617.994,228.856 618.171,229.386C618.445,230.209 618.872,230.771 619.416,231.091C620.261,231.587 621.332,231.508 622.358,231.132C624.233,230.446 626.018,228.742 626.271,226.847C626.72,223.476 625.604,220.378 624.447,217.292Z" style="fill:white;"/>
            </g>
            <g transform="matrix(3.27425,0,0,10.4396,-1817.13,-2060.45)">
                <path d="M632.729,211.47C632.754,210.167 632.928,208.849 633.346,207.844C633.913,206.48 634.884,205.63 636.29,205.63C636.849,205.63 637.302,206.084 637.302,206.642C637.302,207.201 636.849,207.655 636.29,207.655C635.887,207.655 635.616,207.896 635.411,208.23C635.2,208.577 635.056,209.012 634.951,209.489C634.667,210.787 634.685,212.374 634.826,213.626C635.124,214.412 635.413,215.204 635.518,215.415C635.53,215.439 636.116,216.583 636.35,217.221C636.461,217.528 636.501,217.78 636.499,217.917C636.496,218.256 636.36,218.482 636.232,218.626C636.038,218.845 635.785,218.977 635.452,218.977C635.015,218.977 634.475,218.699 634.084,218.072C633.67,217.409 633.329,216.266 633.233,215.978C633.101,215.582 632.974,214.975 632.88,214.252L632.579,213.468L632.426,213.066C632.348,212.982 632.284,212.883 632.237,212.771C632.029,212.274 632.249,211.703 632.729,211.47Z" style="fill:white;"/>
            </g>
            <g transform="matrix(3.27425,0,0,10.4396,-1817.13,-2060.45)">
                <path d="M643.265,209.373C643.517,209.2 643.846,209.142 644.158,209.247C645.985,209.855 647.425,212.114 647.709,214.356C648.016,216.786 647.043,219.056 644.383,219.388C642.65,219.605 641.37,219.124 640.483,218.302C639.662,217.542 639.17,216.46 639.018,215.259C638.807,213.587 639.261,211.686 640.289,210.247C641.255,208.894 642.176,208.825 642.675,208.993C642.892,209.066 643.093,209.193 643.265,209.373ZM643.814,211.293C643.804,211.484 643.78,211.677 643.74,211.864C643.625,212.411 643.087,212.761 642.54,212.645C642.088,212.549 641.77,212.164 641.74,211.724C640.338,214.045 640.743,217.803 644.132,217.38C645.535,217.204 645.862,215.892 645.7,214.61C645.53,213.266 644.846,211.832 643.814,211.293Z" style="fill:white;"/>
            </g>
            <g transform="matrix(3.27425,0,0,10.4396,-1817.13,-2060.45)">
                <path d="M650.311,214.004C650.176,214.413 649.811,214.815 649.566,215.28C649.16,216.051 648.954,216.915 649.412,217.953C650.027,219.351 650.866,220.143 651.728,220.52C653.187,221.158 654.831,220.672 656.07,219.426C657.724,217.764 658.612,214.755 657.094,212.022C656.407,210.785 655.373,210.036 654.409,209.072C654.014,208.677 653.372,208.677 652.977,209.072C652.582,209.467 652.582,210.108 652.977,210.503C653.806,211.332 654.733,211.941 655.324,213.005C656.348,214.848 655.75,216.877 654.635,217.999C654.026,218.61 653.256,218.979 652.54,218.665C652.043,218.448 651.619,217.941 651.264,217.137C651.058,216.67 651.295,216.31 651.499,215.977C651.787,215.509 652.091,215.069 652.233,214.638C652.409,214.108 652.12,213.535 651.59,213.36C651.059,213.185 650.486,213.473 650.311,214.004Z" style="fill:white;"/>
            </g>
            <g transform="matrix(3.27425,0,0,10.4396,-1817.13,-2060.45)">
                <path d="M653.12,202.963C653.589,203.091 653.911,203.544 653.859,204.044C653.8,204.599 653.302,205.003 652.747,204.945C652.511,204.921 652.417,204.905 652.354,204.887C652.227,204.848 652.127,204.831 651.719,204.423C651.324,204.028 651.324,203.386 651.719,202.991C652.104,202.606 652.724,202.597 653.12,202.963Z" style="fill:white;"/>
            </g>
            <g transform="matrix(3.27425,0,0,10.4396,-1817.13,-2060.45)">
                <path d="M664.617,215.035C667.817,214.033 668.228,211.099 667.297,209.679C666.9,209.075 666.28,208.669 665.483,208.611C664.846,208.564 664.052,208.752 663.169,209.383C657.606,213.357 661.077,222.618 667.907,221.479C668.458,221.387 668.831,220.865 668.739,220.314C668.647,219.763 668.125,219.39 667.574,219.482C662.817,220.275 660.471,213.798 664.345,211.031C664.843,210.675 665.217,210.509 665.491,210.675C665.687,210.795 665.736,211.06 665.722,211.33C665.686,212.017 665.131,212.753 664.012,213.103C663.479,213.27 663.181,213.838 663.348,214.371C663.515,214.905 664.084,215.202 664.617,215.035Z" style="fill:white;"/>
            </g>
            <g transform="matrix(3.27425,0,0,10.4396,-1817.13,-2060.45)">
                <path d="M679.795,213.709C679.697,212.956 679.641,212.189 679.639,211.446C679.632,209.26 680.119,207.3 681.073,206.346C681.43,205.989 681.786,205.991 682.037,206.039C682.324,206.094 682.755,206.293 682.888,206.905C682.977,207.314 682.802,208.782 682.796,208.84C682.701,209.787 682.549,210.73 682.362,211.663C682.232,212.315 682.061,213.076 681.842,213.883C682.087,215.627 682.568,217.214 683.186,217.935C684.507,219.476 686.559,218.741 687.383,217.093C687.633,216.593 688.241,216.39 688.741,216.64C689.241,216.89 689.444,217.498 689.194,217.998C687.721,220.943 684.009,222.006 681.649,219.252C681.281,218.823 680.934,218.145 680.636,217.317C680.337,217.977 679.997,218.614 679.612,219.194C678.47,220.917 676.935,222.15 674.96,222.328C672.404,222.557 670.878,221.186 670.155,219.27C669.51,217.56 669.565,215.371 670.135,213.661C670.359,212.988 670.849,211.711 671.558,210.913C672.254,210.128 673.136,209.75 674.141,210.085C674.695,210.27 675.059,210.689 675.242,211.282C675.359,211.657 675.392,212.126 675.409,212.568C675.417,212.774 675.448,213.098 675.45,213.121C675.649,213.631 675.405,214.211 674.897,214.423C674.381,214.638 673.788,214.394 673.573,213.878C673.444,213.568 673.404,213.045 673.38,212.5C673.374,212.367 673.348,212.174 673.326,212.033C673.302,212.046 673.279,212.063 673.257,212.08C673.109,212.194 672.981,212.355 672.863,212.53C672.464,213.12 672.198,213.874 672.056,214.301C671.623,215.598 671.56,217.258 672.049,218.555C672.461,219.647 673.323,220.442 674.779,220.311C676.138,220.189 677.139,219.261 677.925,218.075C678.78,216.786 679.376,215.185 679.795,213.709Z" style="fill:white;"/>
            </g>
            <g transform="matrix(3.27425,0,0,10.4396,-1817.13,-2060.45)">
                <path d="M683.91,213.291C683.566,213.663 682.989,213.725 682.57,213.419C682.096,213.072 682.061,212.659 682.12,212.334C682.164,212.093 682.299,211.787 682.673,211.564C682.841,211.465 683.16,211.351 683.56,211.275C684.202,211.153 685.12,211.082 685.563,211.082C686.121,211.082 686.575,211.535 686.575,212.094C686.575,212.653 686.121,213.106 685.563,213.106C685.239,213.106 684.34,213.229 683.91,213.291ZM683.883,211.886C683.895,211.898 683.907,211.91 683.918,211.922L683.936,211.943C683.912,211.914 683.886,211.886 683.855,211.859L683.883,211.886ZM683.815,211.824L683.838,211.844L683.824,211.831L683.815,211.824Z" style="fill:white;"/>
            </g>
            <g transform="matrix(3.27425,0,0,10.4396,-1817.13,-2060.45)">
                <path d="M696.334,208.872C695.973,208.82 695.46,208.81 694.968,208.919C694.625,208.995 694.282,209.123 694.06,209.4C693.812,209.71 693.76,210.179 693.894,210.847C694.008,211.418 694.43,211.738 694.933,212.002C695.682,212.396 696.61,212.653 697.491,212.978C698.825,213.471 700.041,214.128 700.724,215.27C701.199,216.066 701.445,217.104 701.242,218.527C700.93,220.707 699.365,221.572 697.409,221.619C694.972,221.677 691.914,220.296 690.927,219.309C690.532,218.914 690.532,218.273 690.927,217.878C691.322,217.483 691.964,217.483 692.359,217.878C693.117,218.636 695.488,219.639 697.361,219.595C698.28,219.573 699.091,219.265 699.238,218.241C699.627,215.514 697.473,215.112 695.692,214.493C693.847,213.852 692.264,213.021 691.909,211.244C691.619,209.794 691.941,208.81 692.478,208.136C692.99,207.496 693.738,207.118 694.53,206.942C695.579,206.709 696.689,206.84 697.207,206.993C697.973,207.218 698.156,207.813 698.172,208.01C698.196,208.303 698.147,208.988 697.225,209.152C696.888,209.212 696.56,209.097 696.334,208.872Z" style="fill:white;"/>
            </g>
            <g transform="matrix(3.27425,0,0,10.4396,-1908.43,-1887.52)">
                <path d="M589.165,228.106C593.191,226.72 597.795,227.096 601.992,226.731C614.008,225.686 625.979,224.181 638.035,223.378C655.422,222.219 672.811,221.559 690.216,220.863C703.214,220.343 716.524,219.658 729.468,221.275C730.022,221.345 730.529,220.951 730.598,220.397C730.667,219.842 730.273,219.336 729.719,219.267C716.666,217.635 703.243,218.316 690.135,218.84C672.712,219.537 655.305,220.197 637.9,221.358C625.831,222.162 613.847,223.668 601.817,224.714C597.46,225.093 592.685,224.753 588.506,226.191C587.978,226.373 587.697,226.95 587.879,227.478C588.06,228.006 588.637,228.288 589.165,228.106Z" style="fill:white;"/>
            </g>
        </g>
    </g>
</svg>
