<?xml version="1.0" encoding="UTF-8" standalone="no"?>
<!DOCTYPE svg PUBLIC "-//W3C//DTD SVG 1.1//EN" "http://www.w3.org/Graphics/SVG/1.1/DTD/svg11.dtd">
<svg width="100%" height="100%" viewBox="0 0 220 69" version="1.1" xmlns="http://www.w3.org/2000/svg" xmlns:xlink="http://www.w3.org/1999/xlink" xml:space="preserve" xmlns:serif="http://www.serif.com/" style="fill-rule:evenodd;clip-rule:evenodd;stroke-linejoin:round;stroke-miterlimit:2;">
    <g transform="matrix(1,0,0,1,-548.541,-170.434)">
        <g id="projects" transform="matrix(0.44,0,0,0.138,548.541,170.434)">
            <rect x="0" y="0" width="500" height="500" style="fill:none;"/>
            <g transform="matrix(1.19182,0,0,1.19182,-54.4149,-46.3753)">
                <g transform="matrix(2.27273,0,0,7.24638,-1183.31,-1355.06)">
                    <path d="M623.445,215.83C623.124,213.35 622.319,209.018 622.457,205.303C622.574,202.121 623.463,199.393 625.417,198.091C626.454,197.399 627.335,197.357 628.042,197.565C628.719,197.765 629.298,198.239 629.729,198.92C630.162,199.604 630.447,200.527 630.596,201.35C631.342,205.454 630.411,210.342 626.128,211.291C626.167,212.214 626.198,213.244 626.213,213.458C626.263,214.159 626.307,214.863 626.35,215.568C626.377,215.77 626.4,215.96 626.418,216.135C626.581,217.679 626.909,219.225 627.049,220.768C627.106,221.39 627.054,222.643 627.054,222.643C627.02,223.388 626.43,223.987 625.686,224.033C624.942,224.079 624.283,223.556 624.159,222.82C624.159,222.82 623.818,220.796 623.725,219.774C623.607,218.467 623.526,217.148 623.445,215.83ZM627.21,200.422C627.154,200.449 627.087,200.483 627.035,200.517C626.475,200.891 626.126,201.5 625.876,202.222C625.556,203.146 625.415,204.245 625.371,205.411C625.335,206.392 625.369,207.417 625.443,208.437C626.759,208.119 627.439,207.078 627.727,205.836C628.016,204.59 627.962,203.164 627.727,201.871C627.662,201.514 627.565,201.121 627.416,200.775C627.369,200.665 627.274,200.516 627.21,200.422Z" style="fill:rgb(37,57,55);"/>
                </g>
                <g transform="matrix(2.27273,0,0,7.24638,-1240.97,-1348.98)">
                    <path d="M598.137,218.158C598.19,218.367 598.197,218.59 598.15,218.815C597.907,219.976 597.056,220.126 596.949,220.148C596.492,220.239 596.044,220.151 595.645,219.766C595.558,219.682 595.196,219.334 595.186,218.621C595.176,217.905 595.526,214.322 595.652,213.695C596.373,210.089 597,206.438 597.983,202.897C598,202.837 599.202,199.213 600.062,198.154C600.586,197.509 601.199,197.344 601.632,197.364C602.016,197.383 602.391,197.519 602.726,197.853C603.449,198.577 603.925,199.909 604.081,201.557C604.359,204.49 603.782,208.573 603.782,210.207C603.782,210.54 603.777,211.262 603.892,211.929C603.898,211.964 603.906,212.001 603.915,212.04C604.171,211.717 604.399,211.297 604.615,210.832C605.636,208.631 606.292,205.534 606.619,204.663C606.699,204.449 607.629,201.996 608.371,201.209C609.105,200.43 609.915,200.421 610.524,200.725C611.028,200.977 611.515,201.585 611.686,202.498C611.858,203.424 611.749,204.813 611.749,205.175C611.749,208.519 612.18,211.818 612.376,215.153C612.393,215.448 612.588,218.047 612.635,218.669C612.867,218.927 613.007,219.268 613.007,219.642C613.007,220.447 612.354,221.1 611.549,221.1C611.013,221.1 610.196,220.771 609.855,219.653C609.516,218.541 609.488,215.723 609.464,215.325C609.306,212.625 609,209.949 608.882,207.254C608.386,209.016 607.629,211.65 606.624,213.25C605.634,214.827 604.324,215.513 603.018,215.186C602.294,215.005 601.687,214.452 601.332,213.579C600.902,212.52 600.865,210.844 600.865,210.207C600.865,208.834 601.291,205.697 601.24,203.018C601.238,202.886 601.234,202.755 601.229,202.625C600.986,203.209 600.798,203.662 600.793,203.678C599.829,207.15 599.219,210.731 598.512,214.267C598.425,214.702 598.218,217.158 598.137,218.158ZM611.646,218.187L611.668,218.189L611.657,218.188L611.646,218.187Z" style="fill:rgb(37,57,55);"/>
                </g>
                <g transform="matrix(2.27273,0,0,7.24638,-1240.97,-1348.98)">
                    <path d="M624.322,218.234C623.002,219.866 620.945,220.848 618.697,220.206C617.36,219.824 616.51,218.731 616.139,217.215C615.528,214.726 616.313,210.95 616.588,210.031C616.881,209.054 617.645,208.863 617.731,208.843C618.131,208.752 618.494,208.821 618.824,209.024C619.038,209.157 619.297,209.377 619.44,209.8C619.461,209.862 619.577,210.258 619.408,211.028C619.372,211.19 619.311,211.34 619.229,211.474C619.006,212.46 618.715,214.221 618.847,215.727C618.884,216.147 618.952,216.545 619.084,216.884C619.174,217.116 619.27,217.336 619.498,217.401C621.1,217.859 622.371,216.509 622.775,215.04C622.507,214.517 622.261,213.976 622.11,213.467C621.811,212.463 621.835,211.534 622.196,210.813C622.552,210.101 623.089,209.959 623.469,209.928C623.879,209.896 624.591,210.009 625.021,210.863C625.241,211.299 625.508,212.501 625.654,213.426C625.726,213.886 625.764,214.287 625.779,214.53C626.187,215.279 626.584,215.955 626.753,216.404C628.055,219.877 629.226,223.379 628.72,227.173C628.356,229.902 625.906,232.464 623.207,233.452C621.446,234.097 619.613,234.073 618.164,233.221C617.172,232.638 616.326,231.666 615.827,230.167C615.572,229.404 615.985,228.577 616.749,228.323C617.513,228.068 618.339,228.481 618.594,229.245C618.869,230.071 619.314,230.598 619.896,230.831C620.907,231.235 622.158,230.869 623.246,230.209C624.536,229.426 625.644,228.171 625.829,226.788C626.23,223.777 625.341,220.992 624.322,218.234Z" style="fill:rgb(37,57,55);"/>
                </g>
                <g transform="matrix(2.27273,0,0,7.24638,-1183.31,-1355.06)">
                    <path d="M632.297,211.213C632.339,209.935 632.524,208.658 632.934,207.673C633.578,206.126 634.695,205.184 636.29,205.184C637.095,205.184 637.749,205.838 637.749,206.642C637.749,207.447 637.095,208.101 636.29,208.101C636.054,208.101 635.912,208.266 635.792,208.463C635.604,208.771 635.48,209.16 635.387,209.585C635.115,210.823 635.13,212.335 635.261,213.533C635.547,214.285 635.816,215.013 635.917,215.216C635.929,215.24 636.529,216.414 636.768,217.068C636.906,217.443 636.947,217.754 636.945,217.921C636.941,218.4 636.747,218.718 636.566,218.922C636.289,219.235 635.927,219.423 635.452,219.423C634.98,219.423 634.454,219.229 634.009,218.722C633.452,218.086 632.932,216.487 632.81,216.119C632.674,215.712 632.544,215.091 632.448,214.35L632.203,213.707L632.057,213.322C631.963,213.212 631.885,213.085 631.826,212.944C631.562,212.314 631.774,211.604 632.297,211.213Z" style="fill:rgb(37,57,55);"/>
                </g>
                <g transform="matrix(2.27273,0,0,7.24638,-1183.31,-1355.06)">
                    <path d="M643.333,208.84C643.633,208.728 643.972,208.714 644.3,208.823C646.265,209.479 647.846,211.887 648.151,214.3C648.49,216.983 647.375,219.464 644.439,219.831C642.544,220.068 641.149,219.528 640.18,218.63C639.285,217.8 638.741,216.624 638.576,215.315C638.351,213.538 638.834,211.517 639.926,209.988C641.081,208.372 642.221,208.37 642.817,208.57C642.999,208.632 643.173,208.721 643.333,208.84ZM644.14,212.096C643.916,212.803 643.188,213.238 642.448,213.082C642.176,213.024 641.938,212.894 641.75,212.716C640.983,214.717 641.467,217.263 644.077,216.937C644.795,216.847 645.14,216.344 645.246,215.741C645.352,215.137 645.271,214.454 645.069,213.809C644.868,213.165 644.558,212.533 644.14,212.096Z" style="fill:rgb(37,57,55);"/>
                </g>
                <g transform="matrix(2.27273,0,0,7.24638,-1183.31,-1355.06)">
                    <path d="M649.887,213.864C649.759,214.253 649.405,214.63 649.172,215.072C648.706,215.955 648.48,216.944 649.004,218.133C649.677,219.661 650.607,220.516 651.55,220.929C653.172,221.639 655.008,221.127 656.386,219.741C658.159,217.959 659.111,214.734 657.484,211.805C656.775,210.53 655.718,209.75 654.724,208.756C654.155,208.187 653.231,208.187 652.662,208.756C652.092,209.325 652.092,210.25 652.662,210.819C653.461,211.618 654.364,212.196 654.934,213.221C655.886,214.934 655.274,216.828 654.199,217.798C653.811,218.149 653.365,218.399 652.912,218.316C652.411,218.225 652.022,217.749 651.673,216.957C651.585,216.759 651.666,216.598 651.742,216.451C651.833,216.274 651.943,216.107 652.048,215.945C652.304,215.546 652.532,215.157 652.657,214.778C652.909,214.014 652.494,213.189 651.729,212.936C650.965,212.684 650.14,213.1 649.887,213.864Z" style="fill:rgb(37,57,55);"/>
                </g>
                <g transform="matrix(2.27273,0,0,7.24638,-1183.31,-1355.06)">
                    <path d="M653.341,202.565C653.961,202.785 654.374,203.407 654.302,204.09C654.219,204.89 653.501,205.472 652.7,205.389C652.414,205.359 652.301,205.336 652.225,205.314C652.063,205.265 651.924,205.259 651.404,204.738C650.834,204.169 650.834,203.245 651.404,202.676C651.933,202.147 652.769,202.11 653.341,202.565Z" style="fill:rgb(37,57,55);"/>
                </g>
                <g transform="matrix(2.27273,0,0,7.24638,-1183.31,-1355.06)">
                    <path d="M662.873,214.29C662.563,216.826 664.493,219.543 667.501,219.042C668.295,218.91 669.047,219.447 669.179,220.241C669.312,221.035 668.774,221.787 667.98,221.919C660.693,223.134 656.975,213.259 662.909,209.02C663.902,208.311 664.799,208.114 665.516,208.166C666.462,208.235 667.199,208.717 667.67,209.434C668.711,211.022 668.329,214.34 664.75,215.461C663.982,215.701 663.163,215.273 662.923,214.505C662.9,214.434 662.884,214.362 662.873,214.29ZM665.24,211.087C665.184,211.097 665.101,211.116 665.042,211.141C664.904,211.199 664.759,211.284 664.605,211.394C663.923,211.88 663.454,212.494 663.172,213.162C663.348,212.941 663.589,212.768 663.879,212.677C664.666,212.431 665.131,211.978 665.251,211.481C665.28,211.36 665.256,211.176 665.24,211.087Z" style="fill:rgb(37,57,55);"/>
                </g>
                <g transform="matrix(2.27273,0,0,7.24638,-1183.31,-1355.06)">
                    <path d="M679.343,213.669C679.248,212.929 679.195,212.178 679.193,211.448C679.186,209.121 679.742,207.046 680.757,206.031C681.056,205.732 681.357,205.635 681.588,205.596C681.968,205.531 682.311,205.604 682.622,205.795C682.862,205.943 683.176,206.221 683.31,206.75C683.417,207.174 683.246,208.82 683.24,208.884C683.144,209.846 682.989,210.803 682.799,211.751C682.674,212.379 682.511,213.105 682.304,213.878C682.416,214.617 682.573,215.328 682.764,215.959C682.983,216.683 683.224,217.293 683.525,217.645C684.617,218.919 686.302,218.256 686.984,216.893C687.344,216.173 688.221,215.881 688.941,216.241C689.66,216.601 689.953,217.478 689.593,218.197C687.977,221.429 683.9,222.564 681.31,219.543C681.065,219.256 680.827,218.863 680.605,218.391C680.412,218.755 680.205,219.107 679.984,219.44C678.763,221.282 677.111,222.583 675,222.772C672.202,223.023 670.529,221.525 669.738,219.427C669.058,217.626 669.112,215.321 669.712,213.52C669.949,212.808 670.474,211.462 671.224,210.617C672.046,209.69 673.095,209.266 674.282,209.662C674.975,209.893 675.439,210.408 675.669,211.15C675.835,211.687 675.879,212.879 675.884,213.008C676.137,213.731 675.784,214.536 675.068,214.834C674.325,215.144 673.471,214.792 673.161,214.05C673.071,213.834 673.005,213.55 672.973,213.222C672.741,213.672 672.579,214.143 672.479,214.442C672.077,215.648 672.011,217.192 672.466,218.398C672.81,219.308 673.525,219.976 674.739,219.867C675.963,219.757 676.846,218.896 677.553,217.829C678.368,216.6 678.939,215.082 679.343,213.669Z" style="fill:rgb(37,57,55);"/>
                </g>
                <g transform="matrix(2.27273,0,0,7.24638,-1183.31,-1355.06)">
                    <path d="M684.12,213.707C683.617,214.14 682.865,214.187 682.307,213.779C681.641,213.292 681.599,212.71 681.681,212.254C681.742,211.919 681.926,211.49 682.445,211.181C682.64,211.065 683.01,210.925 683.477,210.836C684.146,210.71 685.102,210.636 685.563,210.636C686.368,210.636 687.021,211.289 687.021,212.094C687.021,212.899 686.368,213.552 685.563,213.552C685.284,213.552 684.544,213.648 684.12,213.707ZM684.146,211.52C684.248,211.612 684.335,211.717 684.405,211.83C684.343,211.724 684.259,211.619 684.146,211.52ZM684.099,211.48L684.144,211.519L684.117,211.494L684.099,211.48Z" style="fill:rgb(37,57,55);"/>
                </g>
                <g transform="matrix(2.27273,0,0,7.24638,-1183.31,-1355.06)">
                    <path d="M696.172,209.321C695.932,209.296 695.607,209.276 695.346,209.307C695.007,209.347 694.627,209.405 694.409,209.679C694.224,209.909 694.232,210.262 694.331,210.76C694.417,211.19 694.761,211.408 695.141,211.608C695.873,211.993 696.784,212.241 697.646,212.56C699.079,213.09 700.373,213.814 701.107,215.042C701.625,215.909 701.905,217.039 701.683,218.59C701.539,219.602 701.127,220.345 700.57,220.891C699.794,221.65 698.684,222.034 697.42,222.065C694.858,222.126 691.649,220.662 690.612,219.625C690.043,219.056 690.043,218.132 690.612,217.562C691.181,216.993 692.105,216.993 692.674,217.562C693.383,218.271 695.602,219.19 697.351,219.149C698.042,219.132 698.686,218.949 698.796,218.178C698.902,217.436 698.836,216.893 698.574,216.492C698.303,216.074 697.863,215.825 697.39,215.605C696.808,215.334 696.165,215.13 695.546,214.914C693.538,214.216 691.858,213.265 691.471,211.332C691.147,209.709 691.528,208.611 692.13,207.858C692.706,207.137 693.542,206.704 694.433,206.506C695.57,206.255 696.772,206.4 697.333,206.565C698.374,206.871 698.594,207.706 698.616,207.974C698.649,208.365 698.55,208.754 698.226,209.105C698.089,209.254 697.824,209.499 697.304,209.591C696.889,209.665 696.484,209.556 696.172,209.321Z" style="fill:rgb(37,57,55);"/>
                </g>
                <g transform="matrix(2.27273,0,0,7.24638,-1246.69,-1235.03)">
                    <path d="M589.31,228.528C593.302,227.153 597.869,227.537 602.031,227.175C614.044,226.131 626.012,224.626 638.065,223.823C655.448,222.664 672.832,222.005 690.234,221.309C703.207,220.79 716.493,220.103 729.413,221.718C730.211,221.818 730.941,221.251 731.04,220.452C731.14,219.653 730.573,218.924 729.774,218.824C716.697,217.189 703.249,217.869 690.117,218.395C672.69,219.092 655.279,219.752 637.871,220.913C625.798,221.717 613.811,223.223 601.778,224.27C597.386,224.651 592.574,224.319 588.361,225.77C587.6,226.032 587.195,226.862 587.457,227.623C587.719,228.384 588.549,228.789 589.31,228.528Z" style="fill:rgb(37,57,55);"/>
                </g>
            </g>
        </g>
    </g>
</svg>
