<?xml version="1.0" encoding="UTF-8" standalone="no"?>
<!DOCTYPE svg PUBLIC "-//W3C//DTD SVG 1.1//EN" "http://www.w3.org/Graphics/SVG/1.1/DTD/svg11.dtd">
<svg width="100%" height="100%" viewBox="0 0 220 69" version="1.1" xmlns="http://www.w3.org/2000/svg" xmlns:xlink="http://www.w3.org/1999/xlink" xml:space="preserve" xmlns:serif="http://www.serif.com/" style="fill-rule:evenodd;clip-rule:evenodd;stroke-linejoin:round;stroke-miterlimit:2;">
    <g transform="matrix(1,0,0,1,-547,0)">
        <g id="Signiture" transform="matrix(0.44,0,0,0.138,547,0)">
            <rect x="0" y="0" width="500" height="500" style="fill:none;"/>
            <g transform="matrix(1.31383,0,0,1.19439,-48.3684,-3.41339)">
                <g>
                    <g transform="matrix(2.06612,0,0,7.24638,-581.622,-751.457)">
                        <path d="M317.212,139.052C317.358,139.408 317.357,139.823 317.174,140.195C316.536,141.497 315.464,141.216 315.249,141.135C314.943,141.019 314.424,140.729 314.331,139.932C314.312,139.775 314.319,139.449 314.386,139.027C314.539,138.053 314.996,136.173 315.032,135.917C315.39,133.412 315.92,130.947 316.278,128.441C317.081,122.824 317.595,117.214 318.787,111.652C318.96,110.842 319.218,109.395 319.674,108.138C320.06,107.077 320.609,106.154 321.273,105.622C322.021,105.023 323.351,105.002 324.14,106.773C325.151,109.043 326.179,115.986 326.259,116.433C327.641,124.174 328.773,131.977 328.773,139.851C328.773,140.622 328.147,141.247 327.377,141.247C326.607,141.247 325.982,140.622 325.982,139.851C325.982,132.141 324.865,124.502 323.512,116.924C323.452,116.589 322.852,112.399 322.128,109.599C321.826,110.586 321.648,111.62 321.516,112.237C320.337,117.735 319.834,123.282 319.041,128.836C318.683,131.342 318.153,133.807 317.795,136.311C317.763,136.538 317.4,138.039 317.212,139.052Z" style="fill:rgb(37,57,55);"/>
                    </g>
                    <g transform="matrix(2.06612,0,0,7.24638,-581.622,-751.457)">
                        <path d="M320.664,131.592C320.887,131.372 321.262,131.244 321.662,131.127C322.5,130.88 323.471,130.782 324.138,130.782C324.908,130.782 325.533,130.156 325.533,129.386C325.533,128.616 324.908,127.991 324.138,127.991C323.258,127.991 321.979,128.124 320.874,128.449C319.979,128.713 319.197,129.117 318.699,129.611C318.152,130.153 318.149,131.037 318.691,131.584C319.233,132.131 320.117,132.135 320.664,131.592Z" style="fill:rgb(37,57,55);"/>
                    </g>
                    <g transform="matrix(2.06612,0,0,7.24638,-581.622,-751.457)">
                        <path d="M333.29,128.607C333.593,127.941 333.934,127.35 334.295,126.887C335.166,125.769 336.219,125.31 337.167,125.452C337.759,125.541 338.384,125.852 338.954,126.561C339.478,127.213 340.011,128.321 340.442,130.045C340.683,131.011 340.876,131.994 340.975,132.985C341.11,134.332 340.982,135.752 340.982,137.111C340.982,137.881 340.357,138.506 339.586,138.506C338.816,138.506 338.191,137.881 338.191,137.111C338.191,135.844 338.324,134.519 338.198,133.263C338.112,132.406 337.943,131.557 337.734,130.721C337.524,129.881 337.3,129.234 337.055,128.756C336.981,128.61 336.869,128.453 336.782,128.34C336.562,128.605 336.066,129.227 335.816,129.769C335.298,130.892 334.914,132.3 334.793,133.567C335.016,134.761 335.21,135.958 335.231,136.603C335.282,138.19 334.262,138.755 333.606,138.755C333.035,138.755 332.318,138.446 332.044,137.449C331.826,136.658 331.962,134.655 331.962,134.37C331.962,134.211 331.966,134.049 331.974,133.884C331.82,133.151 331.656,132.416 331.531,131.792C331.399,131.13 331.31,130.574 331.293,130.227C331.274,129.836 331.338,129.551 331.403,129.381C331.676,128.66 332.482,128.297 333.202,128.57C333.232,128.582 333.261,128.594 333.29,128.607Z" style="fill:rgb(37,57,55);"/>
                    </g>
                    <g transform="matrix(2.06612,0,0,7.24638,-581.622,-751.457)">
                        <path d="M363.872,131.754C363.787,131.103 363.71,130.541 363.633,130.158C363.607,130.027 363.267,127.329 363.427,126.408C363.562,125.626 364.034,125.258 364.348,125.117C364.72,124.95 365.147,124.909 365.626,125.148C366.452,125.561 366.92,126.317 367.098,127.246C367.253,128.056 367.145,129.028 367.145,129.635C367.145,130.418 366.99,131.23 366.716,132.031C366.827,132.87 366.958,133.783 367.123,134.621C367.229,135.162 367.349,135.668 367.494,136.087C367.573,136.316 367.626,136.516 367.733,136.622C368.277,137.167 368.277,138.051 367.733,138.596C367.188,139.14 366.304,139.14 365.759,138.596C365.309,138.146 364.883,137.25 364.595,136.11C364.569,136.006 364.543,135.899 364.519,135.79C363.752,136.683 362.879,137.441 361.989,137.971C360.39,138.924 358.742,139.138 357.452,138.524C356.3,137.975 355.267,136.704 354.947,134.27C354.11,135.49 353.18,136.692 352.308,137.928C352.959,140.833 353.526,144.434 353.032,146.749C352.778,147.934 352.26,148.844 351.525,149.405C350.739,150.007 349.67,150.289 348.218,149.926C347.423,149.727 346.78,149.069 346.481,148.021C346.1,146.687 346.292,144.559 346.441,143.814C346.907,141.48 348.029,139.395 349.342,137.405C349.214,136.901 349.089,136.432 348.973,136.015L348.838,136.127C347.277,137.377 345.165,137.772 343.297,136.527C342.063,135.704 341.375,134.117 341.301,132.315C341.202,129.876 342.239,127.147 343.733,126.027C344.272,125.623 344.809,125.525 345.312,125.591C345.892,125.666 346.477,126.01 346.948,126.576C347.236,126.923 347.485,127.358 347.676,127.77C347.84,127.716 348.01,127.693 348.185,127.696C348.5,127.7 348.889,127.803 349.267,128.124C349.547,128.363 349.905,128.85 350.202,129.398C350.599,130.131 350.897,130.957 350.93,131.15C351.026,131.728 351,132.32 350.872,132.897C351.005,133.147 351.102,133.347 351.139,133.47C351.201,133.677 351.3,134.009 351.42,134.436C351.919,133.74 352.412,133.047 352.877,132.35C353.667,131.165 354.448,130.461 354.985,129.117C355.14,128.73 355.127,127.631 355.134,127.476C355.185,126.202 357.925,124.223 357.925,127.642C357.925,129.613 357.506,131.516 357.671,133.506C357.786,134.882 358.043,135.714 358.652,136.004C359.205,136.267 359.876,135.981 360.56,135.574C361.881,134.787 363.191,133.328 363.872,131.754ZM350.176,141.44C349.732,142.369 349.382,143.337 349.177,144.361C349.1,144.745 349.002,145.64 349.051,146.471C349.065,146.722 349.144,147.085 349.191,147.281C349.44,147.322 349.644,147.313 349.805,147.206C350.044,147.048 350.149,146.747 350.245,146.401C350.385,145.893 350.44,145.289 350.445,144.632C350.452,143.641 350.345,142.542 350.176,141.44ZM344.959,128.724C344.339,129.567 344.039,130.967 344.09,132.201C344.124,133.029 344.278,133.827 344.846,134.205C345.606,134.712 346.457,134.458 347.093,133.949C347.39,133.711 347.654,133.414 347.849,133.086C347.453,132.384 346.975,131.521 346.736,130.809L346.714,130.744C346.55,130.742 346.382,130.711 346.22,130.648C345.702,130.444 345.374,129.965 345.337,129.445L344.959,128.724Z" style="fill:rgb(37,57,55);"/>
                    </g>
                    <g transform="matrix(2.06612,0,0,7.24638,-581.622,-751.457)">
                        <path d="M377.895,122.967C378.601,122.806 379.322,123.216 379.538,123.918C379.764,124.655 379.349,125.436 378.613,125.662C378.238,125.777 377.861,125.785 377.468,125.728C377.333,125.708 377.194,125.679 377.049,125.655C376.986,125.645 376.917,125.612 376.838,125.651C376.344,125.898 375.966,126.137 375.695,126.384C375.517,126.546 375.387,126.676 375.38,126.839C375.373,127 375.452,127.153 375.54,127.316C375.718,127.642 375.976,127.967 376.265,128.301C377.17,129.351 378.333,130.448 379.053,131.6C379.7,132.636 380.021,133.724 379.833,134.848C379.551,136.545 377.921,137.831 375.732,138.389C374.119,138.801 372.238,138.852 370.745,138.582C369.533,138.363 368.558,137.906 368.002,137.35C367.457,136.805 367.457,135.921 368.002,135.376C368.546,134.832 369.431,134.832 369.975,135.376C370.224,135.625 370.699,135.738 371.241,135.836C372.379,136.041 373.813,135.999 375.042,135.685C375.643,135.532 376.195,135.318 376.61,135.012C376.842,134.841 377.037,134.651 377.081,134.389C377.185,133.762 376.806,133.203 376.379,132.636C375.723,131.764 374.85,130.933 374.152,130.124C373.165,128.981 372.543,127.813 372.591,126.717C372.642,125.578 373.327,124.287 375.59,123.155C376.194,122.853 376.735,122.814 377.238,122.866C377.446,122.887 377.794,122.949 377.895,122.967Z" style="fill:rgb(37,57,55);"/>
                    </g>
                    <g transform="matrix(2.06612,0,0,7.24638,-581.622,-751.457)">
                        <path d="M421.794,136.703C419.041,140.665 414.171,142.74 409.149,139.811C406.509,138.271 405.644,135.45 405.889,132.261C406.207,128.109 408.43,123.335 409.91,120.931C410.531,119.921 412.204,118.392 413.714,117.746C414.804,117.28 415.839,117.277 416.583,117.689C417.327,118.1 418.014,118.982 417.966,120.769C417.946,121.539 417.304,122.148 416.534,122.127C415.764,122.107 415.156,121.465 415.177,120.695C415.181,120.528 415.158,120.337 415.136,120.2C415.105,120.207 415.076,120.215 415.05,120.223C414.786,120.305 414.508,120.448 414.232,120.617C413.417,121.118 412.618,121.855 412.287,122.393C410.969,124.535 408.955,128.776 408.671,132.475C408.514,134.52 408.862,136.413 410.555,137.4C415.667,140.382 420.384,135.962 421.182,130.913C421.281,130.285 421.343,129.656 421.379,129.026C421.15,127.7 420.423,124.759 420.392,122.614C420.372,121.175 420.728,120.025 421.324,119.429C421.834,118.92 422.326,118.853 422.674,118.877C423.098,118.906 423.487,119.084 423.797,119.476C424.01,119.743 424.235,120.322 424.277,121.099C424.326,122.032 424.205,123.432 424.205,124.154C424.205,125.724 424.252,127.295 424.179,128.861L424.192,128.953C424.511,131.341 424.454,133.706 424.454,136.114C424.454,136.884 423.829,137.509 423.058,137.509C422.499,137.509 422.016,137.179 421.794,136.703Z" style="fill:rgb(37,57,55);"/>
                    </g>
                    <g transform="matrix(2.06612,0,0,7.24638,-581.622,-751.457)">
                        <path d="M419.707,130.745C419.651,131.476 419.034,132.046 418.292,132.033C417.522,132.02 416.907,131.384 416.92,130.614C416.938,129.603 417.447,128.851 418.288,128.335C419.464,127.613 421.542,127.493 422.56,127.493C423.33,127.493 423.955,128.118 423.955,128.888C423.955,129.658 423.33,130.283 422.56,130.283C422.039,130.283 421.125,130.292 420.339,130.49C420.163,130.535 419.994,130.588 419.846,130.66C419.803,130.681 419.744,130.719 419.707,130.745Z" style="fill:rgb(37,57,55);"/>
                    </g>
                    <g transform="matrix(2.06612,0,0,7.24638,-581.622,-751.457)">
                        <path d="M432.737,127.024C433.279,126.91 433.86,127.127 434.186,127.616C435.559,129.674 435.796,132.235 435.137,134.229C434.647,135.713 433.672,136.887 432.352,137.459C430.994,138.047 429.206,138.042 427.095,136.824C425.77,136.06 425.192,134.305 425.456,132.302C425.644,130.871 426.223,129.332 426.965,128.204C427.572,127.282 428.311,126.63 429.019,126.346C429.933,125.981 431.489,126.081 432.261,126.602C432.447,126.728 432.606,126.869 432.737,127.024ZM430.483,128.912C430.332,128.901 430.152,128.899 430.055,128.938C429.773,129.05 429.538,129.371 429.296,129.739C428.766,130.544 428.357,131.644 428.223,132.666C428.159,133.15 428.153,133.613 428.258,134.002C428.303,134.169 428.352,134.327 428.49,134.407C429.604,135.05 430.526,135.209 431.242,134.898C431.856,134.632 432.259,134.044 432.487,133.354C432.854,132.245 432.767,130.861 432.153,129.657C431.95,129.72 431.73,129.736 431.507,129.697C431.041,129.615 430.669,129.311 430.483,128.912Z" style="fill:rgb(37,57,55);"/>
                    </g>
                    <g transform="matrix(2.06612,0,0,7.24638,-581.622,-751.457)">
                        <path d="M440.409,127.125C440.836,126.927 441.353,126.949 441.773,127.229C445.086,129.437 445.362,133.348 443.954,136.085C443.057,137.829 441.488,139.068 439.647,139.245C438.431,139.363 437.064,139.032 435.67,137.973C431.5,134.808 434.412,129.785 437.769,127.888C438.678,127.375 439.598,127.124 440.409,127.125ZM441.838,131.787C441.16,131.708 440.625,131.139 440.607,130.437C440.603,130.288 440.589,130.156 440.56,130.041C440.545,129.985 440.558,129.929 440.521,129.907C440.434,129.855 440.32,129.89 440.197,129.91C439.865,129.963 439.505,130.113 439.142,130.318C438.097,130.909 437.046,131.959 436.593,133.12C436.244,134.017 436.354,134.989 437.357,135.75C438.074,136.294 438.754,136.528 439.379,136.467C440.299,136.378 441.024,135.68 441.473,134.808C441.93,133.919 442.101,132.817 441.838,131.787Z" style="fill:rgb(37,57,55);"/>
                    </g>
                    <g transform="matrix(2.06612,0,0,7.24638,-581.622,-751.457)">
                        <path d="M452.181,128.622C452.397,127.428 452.67,126.344 452.845,125.584C453.248,123.837 453.075,123.986 453.641,122.431C453.808,121.972 454.054,120.898 454.212,120.384C454.305,120.082 454.41,119.871 454.47,119.777C454.917,119.073 455.538,119.075 455.866,119.121C456.068,119.149 457.095,119.344 457.095,120.665C457.095,122.79 456.291,127.644 454.636,131.681C454.634,131.911 454.64,132.138 454.655,132.36C454.722,133.327 454.918,134.225 455.751,134.582C457.467,135.318 458.834,134.353 459.845,133.034C459.66,130.727 460.569,128.382 462.551,127.391C463.235,127.048 463.738,127.169 464.043,127.305C464.466,127.492 464.793,127.829 464.918,128.383C464.978,128.647 464.981,129.081 464.818,129.609C464.526,130.559 463.59,132.259 463.149,133.054C463.032,133.263 462.91,133.471 462.781,133.674C463.11,134.859 463.903,135.917 465.22,135.729C466.135,135.598 466.857,134.942 467.457,134.176C468.196,133.235 468.737,132.092 469.094,131.139C469.392,130.343 469.467,128.118 469.498,127.805C469.595,126.857 470.338,126.624 470.402,126.6C470.848,126.432 471.294,126.465 471.726,126.786C471.86,126.885 472.119,127.088 472.242,127.546C472.25,127.577 472.294,127.761 472.294,128.14C472.294,130.233 473.064,132.557 473.558,134.871C474.14,137.604 474.345,140.315 473.144,142.718C471.896,145.214 467.923,148.186 464.316,148.921C461.522,149.491 458.987,148.798 457.691,146.206C457.346,145.518 457.626,144.679 458.315,144.334C459.004,143.99 459.842,144.269 460.187,144.958C460.87,146.325 462.284,146.487 463.758,146.187C466.55,145.617 469.682,143.401 470.648,141.47C471.568,139.629 471.274,137.546 470.828,135.453C470.758,135.124 470.684,134.795 470.607,134.466C470.166,135.234 469.642,135.981 469.037,136.61C468.082,137.601 466.931,138.304 465.615,138.492C463.436,138.803 461.755,137.715 460.776,136.047C459.121,137.471 457.02,138.162 454.652,137.147C453.759,136.765 453.105,136.15 452.655,135.373C452.553,135.513 452.45,135.649 452.344,135.781C450.664,137.872 448.557,138.906 446.097,138.203C445.145,137.931 444.529,137.398 444.146,136.732C443.663,135.891 443.575,134.756 443.876,133.532C444.227,132.099 445.1,130.515 446.047,129.363C446.776,128.475 447.571,127.846 448.205,127.592C448.501,127.474 448.934,127.405 449.434,127.449C450.224,127.52 451.244,127.876 451.853,128.333C451.975,128.425 452.085,128.521 452.181,128.622ZM449.134,130.235C448.843,130.396 448.53,130.736 448.204,131.134C447.506,131.983 446.845,133.141 446.586,134.197C446.445,134.773 446.298,135.358 446.864,135.52C447.877,135.809 448.747,135.443 449.502,134.751C450.153,134.156 450.721,133.341 451.228,132.411C451.336,132.214 451.44,132.013 451.542,131.806C450.959,132.028 450.278,131.837 449.903,131.303C449.711,131.029 449.631,130.71 449.654,130.4L449.134,130.235Z" style="fill:rgb(37,57,55);"/>
                    </g>
                </g>
                <g transform="matrix(2.06612,0,0,7.24638,-584.711,-644.928)">
                    <path d="M306.079,143.177C306.235,143.182 307.113,143.207 307.808,143.143C310.632,142.883 314.891,142.026 316.072,141.947C327.365,141.195 338.662,139.764 349.952,138.958C393.147,135.873 437.057,136.213 480.367,136.213C481.138,136.213 481.763,136.839 481.763,137.609C481.763,138.379 481.138,139.004 480.367,139.004C437.123,139.004 393.28,138.661 350.151,141.742C338.856,142.548 327.555,143.979 316.257,144.732C314.906,144.822 309.526,145.928 306.869,145.998C305.809,146.026 305.041,145.823 304.692,145.592C304.05,145.166 303.875,144.3 304.3,143.658C304.692,143.067 305.459,142.871 306.079,143.177Z" style="fill:rgb(37,57,55);"/>
                </g>
            </g>
        </g>
    </g>
</svg>
