<?xml version="1.0" encoding="UTF-8" standalone="no"?><!DOCTYPE svg PUBLIC "-//W3C//DTD SVG 1.1//EN" "http://www.w3.org/Graphics/SVG/1.1/DTD/svg11.dtd"><svg width="100%" height="100%" viewBox="0 0 123 72" version="1.1" xmlns="http://www.w3.org/2000/svg" xmlns:xlink="http://www.w3.org/1999/xlink" xml:space="preserve" xmlns:serif="http://www.serif.com/" style="fill-rule:evenodd;clip-rule:evenodd;stroke-linejoin:round;stroke-miterlimit:2;"><rect id="skills" x="-55.012" y="-17.596" width="220" height="108.155" style="fill:none;"/><path d="M30.317,51.559c0.293,0.481 0.232,1.118 -0.184,1.534c-0.384,0.384 -0.79,0.426 -1.131,0.37c-0.292,-0.047 -0.628,-0.19 -0.884,-0.58c-0.1,-0.152 -0.247,-0.512 -0.305,-1.034c-0.109,-0.997 -0.084,-3.088 -0.084,-3.695l-0,-8.92c-0,-3.817 -0.61,-10.467 -0.71,-16.271c-0.07,-4.056 0.131,-7.716 0.883,-9.842c0.23,-0.651 0.945,-0.992 1.596,-0.761c0.65,0.23 0.991,0.945 0.761,1.595c-0.685,1.936 -0.804,5.272 -0.741,8.965c0.1,5.819 0.711,12.487 0.711,16.314l-0,8.92c-0,0.516 0.067,2.739 0.088,3.405Zm-1.139,-0.598c-0.262,-0.004 -0.54,0.091 -0.813,0.364c0.226,-0.226 0.517,-0.347 0.813,-0.364Z" style="fill:#253937;"/><path d="M17.746,52.245c-0.012,-0.092 -0.018,-0.193 -0.018,-0.306c-0,-0.69 0.56,-1.25 1.25,-1.25c0.294,-0 0.564,0.101 0.778,0.272c3.906,0.02 8.5,0.268 12.737,0.268c0.297,0 4.194,-0.158 4.798,-0.024c0.745,0.164 0.948,0.696 1.011,0.926c0.101,0.371 0.09,0.812 -0.33,1.232c-1.948,1.948 -4.142,6.122 -6.061,9c-0.264,0.396 -1.077,2.232 -1.746,3.435c-0.423,0.76 -0.865,1.306 -1.126,1.485c-0.333,0.229 -0.652,0.275 -0.911,0.255c-0.313,-0.024 -0.598,-0.144 -0.844,-0.389c-2.356,-2.357 -5.406,-5.228 -7.454,-8.3c-0.688,-1.031 -1.581,-3.625 -1.93,-4.686c-0.29,-0.242 -0.468,-0.612 -0.45,-1.018c0.02,-0.426 0.151,-0.712 0.296,-0.9Zm2.56,1.22c0.404,1.196 0.995,3.084 1.604,3.997c1.686,2.53 4.096,4.907 6.172,6.957c0.672,-1.217 1.484,-3.045 1.749,-3.443c1.461,-2.19 3.094,-5.086 4.661,-7.284c-0.955,0.019 -1.877,0.037 -1.999,0.037c-4.04,0 -8.404,-0.225 -12.187,-0.264Z" style="fill:#253937;"/><path d="M48.034,26.409c0.136,-0.766 0.297,-1.69 0.307,-1.785c0.142,-1.421 0.035,-4.084 0.32,-6.381c0.228,-1.847 0.755,-3.465 1.634,-4.345c0.352,-0.352 0.723,-0.457 1.057,-0.462c0.345,-0.004 0.698,0.105 1.022,0.388c0.249,0.219 0.527,0.644 0.726,1.179c0.287,0.773 0.479,1.818 0.501,1.926c0.263,1.316 0.358,3.273 0.732,4.967c0.041,0.186 0.085,0.369 0.132,0.546c0.843,-1.965 1.8,-4.68 1.975,-5.03c0.184,-0.369 0.518,-1.08 0.81,-1.414c0.236,-0.269 0.497,-0.422 0.719,-0.495c0.338,-0.112 0.666,-0.096 0.98,0.037c0.218,0.092 0.45,0.249 0.645,0.542c0.712,1.067 1.149,2.752 1.368,4.608c0.296,2.5 0.237,5.323 0.237,7.048c0,0.69 -0.56,1.25 -1.25,1.25c-0.689,0 -1.25,-0.56 -1.25,-1.25c0,-1.654 0.064,-4.359 -0.22,-6.755c-0.057,-0.486 -0.125,-0.958 -0.213,-1.402c-0.41,1.093 -1.042,2.797 -1.608,4.088c-0.456,1.043 -0.924,1.847 -1.212,2.126c-0.326,0.315 -0.661,0.409 -0.915,0.428c-0.387,0.028 -0.742,-0.087 -1.046,-0.392c-0.775,-0.774 -1.285,-2.002 -1.593,-3.396c-0.335,-1.519 -0.451,-3.248 -0.659,-4.547c-0.034,0.215 -0.063,0.437 -0.091,0.662c-0.282,2.276 -0.173,4.915 -0.314,6.323c-0.019,0.198 -0.432,2.851 -0.611,3.38c-0.293,0.871 -1.031,0.934 -1.23,0.934c-0.55,0 -0.95,-0.25 -1.185,-0.759c-0.085,-0.184 -0.168,-0.51 -0.101,-0.923c0.049,-0.301 0.24,-0.844 0.333,-1.096Z" style="fill:#253937;"/><path d="M63.471,22.124c-0.262,-0.593 -0.024,-1.298 0.558,-1.607c0.314,-0.166 0.616,-0.181 0.898,-0.114c0.269,0.065 0.574,0.218 0.8,0.586c0.077,0.127 0.189,0.385 0.229,0.747c0.053,0.481 0.027,1.434 0.027,1.617c0,0.426 -0.021,0.9 0.023,1.359c0.036,0.376 0.081,0.765 0.417,0.989c0.273,0.182 0.508,0.279 0.726,0.249c0.238,-0.032 0.418,-0.205 0.574,-0.398c0.253,-0.311 0.43,-0.707 0.531,-1.089l0.01,-0.041l-0.087,-0.087c-0.445,-0.455 -0.677,-0.904 -0.73,-1.164c-0.096,-0.474 0.034,-0.856 0.291,-1.16c0.187,-0.222 0.528,-0.506 1.181,-0.506c0.96,0 1.737,0.704 1.895,1.893l0.022,0.021c0.396,0.38 0.748,0.763 0.937,1.065c1.077,1.724 2.239,4.083 1.974,6.2c-0.177,1.415 -0.806,2.374 -1.62,2.979c-1.797,1.337 -4.752,0.877 -6.484,-0.855c-0.488,-0.488 -0.488,-1.28 0,-1.768c0.488,-0.488 1.28,-0.488 1.768,0c0.869,0.869 2.322,1.288 3.224,0.617c0.344,-0.255 0.557,-0.686 0.631,-1.283c0.163,-1.3 -0.496,-2.69 -1.182,-3.857c-0.095,0.163 -0.198,0.321 -0.309,0.469c-0.496,0.661 -1.145,1.154 -1.894,1.36c-0.815,0.225 -1.78,0.145 -2.845,-0.564c-0.864,-0.577 -1.285,-1.417 -1.454,-2.359c-0.123,-0.682 -0.099,-1.421 -0.099,-2.07c0,-0.125 -0.009,-0.913 -0.012,-1.229Zm1.667,0.633c-0.282,0.13 -0.591,0.146 -0.871,0.065c0.274,0.095 0.564,0.082 0.871,-0.065Z" style="fill:#253937;"/><path d="M54.062,37.866c-0.489,0.237 -1.472,0.758 -1.932,1.305c-0.131,0.157 -0.244,0.32 -0.311,0.49c-0.039,0.099 -0.066,0.201 -0.016,0.3c0.253,0.507 0.887,0.859 1.543,1.252c0.943,0.565 1.98,1.118 2.739,1.76c0.691,0.584 1.175,1.252 1.369,2.004c0.203,0.787 0.124,1.699 -0.515,2.764c-0.871,1.452 -2.362,2.073 -4.018,2.081c-2.147,0.01 -4.548,-1.076 -5.712,-2.239c-0.487,-0.487 -0.487,-1.28 0,-1.767c0.488,-0.488 1.28,-0.488 1.768,-0c0.799,0.798 2.459,1.513 3.933,1.506c0.759,-0.004 1.486,-0.201 1.885,-0.867c0.166,-0.276 0.262,-0.51 0.256,-0.73c-0.007,-0.264 -0.181,-0.464 -0.382,-0.663c-0.241,-0.238 -0.539,-0.453 -0.861,-0.663c-0.863,-0.562 -1.873,-1.071 -2.669,-1.636c-0.708,-0.503 -1.263,-1.065 -1.572,-1.683c-0.587,-1.173 -0.256,-2.438 0.649,-3.516c1.051,-1.252 2.881,-2.187 3.801,-2.311c0.661,-0.089 1.132,0.129 1.402,0.373c0.327,0.296 0.544,0.713 0.456,1.313c-0.101,0.683 -0.737,1.155 -1.419,1.054c-0.142,-0.021 -0.274,-0.065 -0.394,-0.127Zm-0.669,-1.219l-0.001,0.011l0.001,-0.011Z" style="fill:#253937;"/><path d="M60.525,37.448c-0.029,-0.079 -0.05,-0.162 -0.062,-0.248c-0.23,-1.562 1.685,-1.445 1.741,-1.419c0.034,0.015 0.564,0.216 0.725,0.946c0.101,0.458 0.518,2.735 0.576,3.306l0.005,0.047c0.358,-0.26 0.788,-0.449 1.296,-0.55c2.936,-0.588 3.88,0.584 4.053,1.683c0.097,0.612 -0.079,1.428 -0.484,2.277c-0.408,0.856 -1.157,1.994 -1.657,2.721c0.711,0.323 1.599,0.615 2.231,0.907c0.555,0.257 0.964,0.555 1.176,0.818c0.259,0.321 0.362,0.661 0.362,0.992c0,0.689 -0.56,1.25 -1.25,1.25c-0.475,-0 -0.888,-0.266 -1.099,-0.656c-0.236,-0.11 -0.827,-0.382 -1.26,-0.549c-0.787,-0.303 -1.602,-0.634 -2.119,-0.988c-0.091,-0.061 -0.174,-0.125 -0.252,-0.19l0,1.531c0,0.669 -0.526,1.22 -1.195,1.249c-0.668,0.029 -1.241,-0.472 -1.3,-1.139c0,0 -0.204,-2.33 -0.204,-3.498c0,-1.822 -0.607,-3.816 -0.791,-5.656c-0.047,-0.467 -0.36,-2.177 -0.492,-2.834Zm5.796,4.442c-0.259,0.002 -0.658,0.018 -1.025,0.091c-0.679,0.136 -0.758,0.844 -0.833,1.534c-0.058,0.532 -0.056,1.092 -0.037,1.625c0.336,-0.507 0.775,-1.148 1.181,-1.807c0.249,-0.403 0.481,-0.816 0.636,-1.202c0.029,-0.071 0.056,-0.158 0.078,-0.241Z" style="fill:#253937;"/><path d="M70.918,44.267c0.254,0.998 0.657,2.469 0.657,3.465c-0,0.69 0.56,1.25 1.25,1.25c0.69,-0 1.25,-0.56 1.25,-1.25c-0,-1.171 -0.436,-2.909 -0.735,-4.082c-0.17,-0.668 -0.851,-1.073 -1.519,-0.902c-0.669,0.17 -1.074,0.851 -0.903,1.519Z" style="fill:#253937;"/><path d="M71.871,37.959c-0.028,0.011 -0.056,0.021 -0.083,0.031c-0.646,0.243 -0.974,0.964 -0.731,1.61c0.242,0.646 0.963,0.973 1.609,0.731c0.028,-0.011 0.056,-0.021 0.084,-0.031c0.646,-0.243 0.973,-0.964 0.731,-1.61c-0.243,-0.646 -0.964,-0.973 -1.61,-0.731Z" style="fill:#253937;"/><path d="M74.947,41.619c0.489,2.187 1.013,4.665 1.013,6.91c0,0.69 0.56,1.25 1.25,1.25c0.69,-0 1.25,-0.56 1.25,-1.25c0,-2.421 -0.546,-5.097 -1.073,-7.455c-0.15,-0.674 -0.819,-1.098 -1.492,-0.948c-0.674,0.151 -1.098,0.82 -0.948,1.493Z" style="fill:#253937;"/><path d="M78.513,40.951c0.859,1.842 1.234,5.283 1.234,7.379c0,0.689 0.56,1.25 1.25,1.25c0.69,-0 1.25,-0.561 1.25,-1.25c0,-2.399 -0.485,-6.328 -1.468,-8.435c-0.291,-0.626 -1.036,-0.897 -1.661,-0.605c-0.625,0.292 -0.896,1.036 -0.605,1.661Z" style="fill:#253937;"/><path d="M87.138,46.829c-0.095,-0.066 -0.23,-0.154 -0.336,-0.206c-0.196,-0.094 -0.41,-0.18 -0.631,-0.261c-0.314,-0.116 -0.642,-0.223 -0.956,-0.328c-1.027,-0.344 -1.91,-0.765 -2.283,-1.209c-0.415,-0.494 -0.539,-1.047 -0.33,-1.674c0.33,-0.992 1.751,-2.238 2.787,-2.808c0.742,-0.408 1.399,-0.441 1.649,-0.377c0.526,0.135 0.821,0.47 0.947,0.922c0.065,0.234 0.145,0.77 -0.386,1.441c-0.324,0.41 -0.853,0.562 -1.326,0.426c-0.257,0.162 -0.544,0.358 -0.752,0.545l-0.151,0.138l0.085,0.033c0.432,0.159 0.927,0.311 1.403,0.481c0.711,0.253 1.381,0.553 1.85,0.913c0.508,0.392 0.827,0.866 0.948,1.393c0.126,0.551 0.062,1.21 -0.443,1.968c-0.246,0.369 -0.662,0.723 -1.219,0.995c-0.599,0.292 -1.387,0.507 -2.189,0.602c-0.807,0.096 -1.625,0.071 -2.273,-0.08c-0.614,-0.142 -1.102,-0.406 -1.425,-0.729c-0.488,-0.488 -0.488,-1.28 -0,-1.768c0.479,-0.479 1.253,-0.487 1.742,-0.023c0.033,0.012 0.268,0.095 0.426,0.119c0.372,0.056 0.806,0.05 1.235,-0.002c0.432,-0.051 0.861,-0.149 1.216,-0.29c0.171,-0.069 0.338,-0.108 0.407,-0.211l0.005,-0.01Z" style="fill:#253937;"/></svg>