<?xml version="1.0" encoding="UTF-8" standalone="no"?>
<!DOCTYPE svg PUBLIC "-//W3C//DTD SVG 1.1//EN" "http://www.w3.org/Graphics/SVG/1.1/DTD/svg11.dtd">
<svg width="100%" height="100%" viewBox="0 0 220 109" version="1.1" xmlns="http://www.w3.org/2000/svg" xmlns:xlink="http://www.w3.org/1999/xlink" xml:space="preserve" xmlns:serif="http://www.serif.com/" style="fill-rule:evenodd;clip-rule:evenodd;stroke-linejoin:round;stroke-miterlimit:2;">
    <g transform="matrix(1,0,0,1,-549.293,-612.476)">
        <g id="skills" transform="matrix(0.44,0,0,0.216309,549.293,612.476)">
            <rect x="0" y="0" width="500" height="500" style="fill:none;"/>
            <g transform="matrix(1.58797,0,0,1.58797,-157.201,-168.121)">
                <g transform="matrix(2.27273,0,0,4.62301,-1248.39,-2831.48)">
                    <path d="M634.622,681.631C634.915,682.112 634.854,682.749 634.438,683.165C634.054,683.55 633.648,683.591 633.307,683.535C633.015,683.488 632.679,683.345 632.423,682.955C632.323,682.803 632.176,682.443 632.118,681.921C632.009,680.924 632.034,678.833 632.034,678.226L632.034,669.306C632.034,665.489 631.424,658.839 631.324,653.035C631.254,648.979 631.455,645.319 632.207,643.193C632.438,642.543 633.152,642.201 633.803,642.432C634.453,642.662 634.794,643.377 634.564,644.027C633.879,645.963 633.76,649.3 633.823,652.992C633.923,658.812 634.534,665.479 634.534,669.306L634.534,678.226C634.534,678.742 634.601,680.965 634.622,681.631ZM633.484,681.034C633.221,681.029 632.943,681.124 632.67,681.397C632.896,681.171 633.188,681.05 633.484,681.034Z" style="fill:rgb(37,57,55);"/>
                </g>
                <g transform="matrix(2.27273,0,0,4.62301,-1248.39,-2831.48)">
                    <path d="M622.051,682.317C622.039,682.226 622.033,682.124 622.033,682.011C622.033,681.321 622.593,680.761 623.283,680.761C623.577,680.761 623.847,680.863 624.061,681.033C627.967,681.053 632.561,681.301 636.798,681.301C637.095,681.301 640.992,681.143 641.596,681.277C642.341,681.441 642.544,681.973 642.607,682.203C642.708,682.574 642.697,683.015 642.277,683.435C640.329,685.383 638.135,689.557 636.216,692.435C635.952,692.831 635.139,694.667 634.47,695.87C634.047,696.63 633.605,697.176 633.344,697.355C633.011,697.584 632.692,697.63 632.433,697.61C632.12,697.586 631.835,697.467 631.589,697.221C629.233,694.864 626.183,691.993 624.135,688.921C623.447,687.891 622.554,685.296 622.205,684.235C621.915,683.993 621.737,683.623 621.755,683.217C621.775,682.791 621.906,682.505 622.051,682.317ZM624.612,683.537C625.015,684.733 625.606,686.621 626.215,687.535C627.901,690.065 630.311,692.441 632.387,694.491C633.059,693.274 633.871,691.446 634.136,691.049C635.597,688.858 637.23,685.962 638.797,683.764C637.842,683.784 636.92,683.801 636.798,683.801C632.758,683.801 628.394,683.576 624.612,683.537Z" style="fill:rgb(37,57,55);"/>
                </g>
                <g transform="matrix(2.27273,0,0,4.62301,-1248.39,-2831.48)">
                    <path d="M661.189,654.47C661.252,654.721 661.238,654.995 661.131,655.252C660.639,656.436 659.625,656.203 659.481,656.157C659.228,656.075 658.635,655.817 658.603,654.973C658.589,654.601 659.149,652.117 659.459,651.185C660.28,648.723 661.004,646.467 661.942,644.121C662.066,643.811 662.667,642.852 663.143,642.228C663.422,641.863 663.688,641.599 663.828,641.5C664.599,640.958 665.205,641.327 665.499,641.622C665.692,641.814 665.9,642.16 665.949,642.662C665.994,643.119 665.879,644.266 665.86,644.445C665.983,645.119 666.592,647.756 667.291,649.631C667.631,648.699 668.024,647.576 668.451,646.612C669.022,645.323 669.722,644.31 670.346,643.936C670.951,643.573 671.562,643.541 672.169,643.845C672.562,644.041 673.028,644.566 673.287,645.454C673.8,647.219 673.87,651.116 674.146,652.222C674.204,652.451 674.305,653.52 674.339,653.893C674.479,654.095 674.562,654.34 674.562,654.605C674.562,655.295 674.002,655.855 673.312,655.855C672.88,655.855 672.259,655.641 671.983,654.825C671.823,654.351 671.798,653.138 671.721,652.828C671.484,651.883 671.396,648.909 671.059,646.948C670.873,647.307 670.692,647.715 670.517,648.141C669.799,649.887 669.163,651.898 668.751,652.573C668.334,653.258 667.771,653.397 667.451,653.397C666.941,653.397 666.197,653.034 665.646,652.064C664.922,650.789 664.175,648.152 663.742,646.4C663.061,648.229 662.477,650.037 661.831,651.975C661.648,652.523 661.344,653.717 661.189,654.47ZM673.489,653.367L673.494,653.368L673.489,653.367ZM673.392,653.358L673.415,653.359L673.403,653.358L673.392,653.358Z" style="fill:rgb(37,57,55);"/>
                </g>
                <g transform="matrix(2.27273,0,0,4.62301,-1248.39,-2831.48)">
                    <path d="M675.652,649.947C675.352,649.352 675.574,648.62 676.162,648.294C676.802,647.938 677.279,648.113 677.602,648.33C677.865,648.506 678.235,648.91 678.214,649.655C678.202,650.102 677.97,651.041 677.919,651.959C677.906,652.212 677.906,652.464 677.951,652.69C677.969,652.778 677.952,652.88 678.03,652.919C678.279,653.044 678.594,652.986 678.871,652.873C679.131,652.767 679.382,652.603 679.483,652.361L679.457,652.096C679.323,651.671 679.246,651.247 679.246,650.824C679.246,649.484 680.415,649.437 680.605,649.451C680.841,649.467 681.347,649.547 681.653,650.162C681.723,650.301 681.879,650.854 681.947,651.469C681.957,651.564 681.966,651.659 681.971,651.755C682.157,652.175 682.434,652.596 682.697,653.033C683.37,654.15 684.042,655.314 684.194,656.529C684.501,658.986 683.078,661.059 681.278,661.683C679.998,662.127 678.486,661.925 677.154,660.593C676.666,660.105 676.666,659.313 677.154,658.825C677.642,658.337 678.434,658.337 678.922,658.825C679.426,659.329 679.974,659.489 680.458,659.321C681.304,659.028 681.857,657.993 681.713,656.839C681.617,656.069 681.199,655.347 680.76,654.639C680.476,654.863 680.156,655.049 679.815,655.188C678.86,655.577 677.769,655.584 676.912,655.156C675.937,654.668 675.472,653.675 675.418,652.483C675.383,651.698 675.554,650.532 675.652,649.947ZM676.956,650.622C677.085,650.607 677.225,650.563 677.376,650.479C677.242,650.553 677.099,650.601 676.956,650.622Z" style="fill:rgb(37,57,55);"/>
                </g>
                <g transform="matrix(2.27273,0,0,4.62301,-1248.39,-2831.48)">
                    <path d="M662.246,668.515C662.335,668.829 662.55,669.062 662.797,669.277C663.204,669.632 663.705,669.928 664.199,670.24C665.602,671.125 666.885,672.15 667.172,673.871C667.55,676.141 666.152,677.901 664.38,678.572C662.552,679.264 660.382,678.804 659.338,676.715C659.03,676.098 659.28,675.347 659.897,675.038C660.514,674.73 661.266,674.98 661.574,675.597C661.967,676.384 662.807,676.495 663.495,676.234C664.24,675.952 664.865,675.236 664.706,674.282C664.623,673.784 664.325,673.436 663.973,673.134C663.444,672.677 662.792,672.318 662.195,671.929C661.058,671.189 660.121,670.328 659.811,669.087C659.651,668.446 659.778,667.771 660.123,667.145C660.486,666.486 661.106,665.883 661.597,665.515C662.424,664.895 663.233,664.934 663.726,665.055L663.744,665.058L663.773,665.064C663.795,665.069 663.817,665.074 663.838,665.079L663.773,665.064L663.747,665.06L663.726,665.055C663.082,664.936 662.719,665.27 662.536,665.535C662.813,665.171 663.277,664.977 663.747,665.06C664.004,665.125 664.17,665.211 664.202,665.23C665.057,665.767 664.78,666.567 664.692,666.777C664.634,666.916 664.262,667.765 663.225,667.503C663.202,667.497 663.179,667.49 663.156,667.483C663.139,667.49 663.115,667.501 663.097,667.515C662.874,667.682 662.596,667.931 662.397,668.217C662.336,668.304 662.264,668.472 662.246,668.515ZM662.29,666.147C662.243,666.446 662.276,666.865 662.686,667.211C662.398,666.946 662.243,666.552 662.29,666.147Z" style="fill:rgb(37,57,55);"/>
                </g>
                <g transform="matrix(2.27273,0,0,4.62301,-1248.39,-2831.48)">
                    <path d="M676.429,675.997C676.562,676.019 676.741,676.041 676.904,676.041C677.594,676.041 678.154,676.601 678.154,677.291C678.154,677.981 677.594,678.541 676.904,678.541C675.297,678.541 674.552,677.967 674.196,677.362C673.844,676.764 673.817,675.926 674.098,674.957C674.291,674.294 674.624,673.527 674.792,672.765C674.882,672.36 674.95,671.955 674.758,671.604C674.636,671.381 674.408,671.202 674.076,671.036C673.912,670.954 673.839,671.147 673.735,671.287C673.476,671.633 673.275,672.092 673.114,672.558C672.828,673.384 672.671,674.24 672.671,674.644C672.671,675.339 672.468,676.72 672.468,676.72C672.373,677.353 671.815,677.812 671.176,677.783C670.537,677.755 670.022,677.248 669.984,676.609C669.984,676.609 669.842,674.174 669.624,672.977C669.436,671.942 669.385,670.124 669.204,668.523C669.108,667.67 669,666.885 668.743,666.424C668.407,665.821 668.624,665.059 669.227,664.723C669.83,664.388 670.592,664.605 670.927,665.208C671.302,665.88 671.548,667 671.688,668.242C671.741,668.713 671.782,669.204 671.818,669.686C671.91,669.566 672.006,669.456 672.105,669.355C672.949,668.505 673.984,668.195 675.194,668.8C676.191,669.298 676.751,669.941 677.062,670.625C677.497,671.583 677.421,672.683 677.117,673.766C676.948,674.37 676.713,674.967 676.544,675.506C676.498,675.654 676.457,675.851 676.429,675.997Z" style="fill:rgb(37,57,55);"/>
                </g>
                <g transform="matrix(2.27273,0,0,4.62301,-1248.39,-2831.48)">
                    <path d="M680.498,673.297C680.917,673.775 681.252,677.114 681.252,677.102" style="fill:rgb(37,57,55);stroke:rgb(37,57,55);stroke-width:2.5px;stroke-linecap:round;stroke-miterlimit:1.5;"/>
                </g>
                <g transform="matrix(2.27273,0,0,4.62301,-1248.39,-2831.48)">
                    <path d="M678.883,667.088C678.865,667.033 678.851,666.975 678.841,666.916C678.728,666.236 679.189,665.591 679.869,665.478C680.226,665.419 680.417,665.484 680.503,665.511C680.808,665.606 681.017,665.781 681.17,666.007C681.258,666.137 681.359,666.978 681.359,666.978C681.359,666.978 681.367,666.935 681.367,666.893C681.367,667.583 680.807,668.143 680.117,668.143C679.494,668.143 678.977,667.686 678.883,667.088Z" style="fill:rgb(37,57,55);"/>
                </g>
                <g transform="matrix(2.27273,0,0,4.62301,-1248.39,-2831.48)">
                    <path d="M685.068,669.662C684.741,669.242 684.709,668.641 685.029,668.181C685.422,667.615 686.202,667.475 686.769,667.868C686.951,667.995 687.258,668.322 687.462,668.917C687.792,669.882 688.177,672.16 688.371,674.109C688.508,675.49 688.537,676.716 688.436,677.268C688.351,677.733 688.15,678.021 687.996,678.175C687.508,678.662 686.716,678.662 686.228,678.175C685.843,677.789 685.762,677.214 685.986,676.749C686.129,675.427 685.142,670.059 685.068,669.662Z" style="fill:rgb(37,57,55);"/>
                </g>
                <g transform="matrix(2.27273,0,0,4.62301,-1248.39,-2831.48)">
                    <path d="M692.974,677.798C693.332,678.212 693.386,678.83 693.068,679.308C692.681,679.887 692.185,679.949 691.774,679.883C691.508,679.84 691.041,679.688 690.753,679.074C690.594,678.736 690.377,677.74 690.176,676.446C689.78,673.904 689.328,670.024 688.889,668.82C688.653,668.172 688.987,667.454 689.635,667.217C690.284,666.981 691.002,667.316 691.238,667.964C691.64,669.068 692.087,672.27 692.468,674.877C692.64,676.053 692.878,677.308 692.974,677.798ZM691.606,677.438C691.389,677.5 691.173,677.642 690.988,677.921C691.143,677.688 691.362,677.525 691.606,677.438Z" style="fill:rgb(37,57,55);"/>
                </g>
                <g transform="matrix(2.27273,0,0,4.62301,-1248.39,-2831.48)">
                    <path d="M698.747,670.438C698.388,670.721 697.995,671.112 697.707,671.544C697.511,671.837 697.322,672.141 697.399,672.45C697.417,672.519 697.498,672.536 697.563,672.579C697.73,672.689 697.929,672.779 698.143,672.865C698.905,673.174 699.807,673.419 700.531,673.775C701.413,674.21 702.062,674.814 702.34,675.62C702.532,676.175 702.567,676.85 702.288,677.686C701.792,679.175 700.615,679.916 699.222,680.099C697.461,680.33 695.351,679.546 694.358,678.553C693.87,678.065 693.87,677.273 694.358,676.785C694.846,676.297 695.638,676.297 696.125,676.785C696.598,677.258 697.529,677.602 698.404,677.639C699.04,677.666 699.699,677.547 699.916,676.895C699.982,676.697 700.028,676.546 699.971,676.421C699.909,676.283 699.765,676.206 699.617,676.12C699.166,675.856 698.589,675.679 698.035,675.487C697.272,675.224 696.544,674.935 696.023,674.552C695.486,674.156 695.125,673.661 694.974,673.057C694.652,671.768 695.336,670.33 696.346,669.262C696.951,668.623 697.638,668.122 698.112,667.868C698.494,667.664 698.82,667.588 699.016,667.577C699.424,667.552 699.719,667.689 699.924,667.845C700.175,668.035 700.351,668.293 700.418,668.637C700.462,668.857 700.496,669.353 700.014,669.98C699.708,670.379 699.207,670.542 698.747,670.438Z" style="fill:rgb(37,57,55);"/>
                </g>
            </g>
        </g>
    </g>
</svg>
