<?xml version="1.0" encoding="UTF-8" standalone="no"?>
<!DOCTYPE svg PUBLIC "-//W3C//DTD SVG 1.1//EN" "http://www.w3.org/Graphics/SVG/1.1/DTD/svg11.dtd">
<svg width="100%" height="100%" viewBox="0 0 220 109" version="1.1" xmlns="http://www.w3.org/2000/svg" xmlns:xlink="http://www.w3.org/1999/xlink" xml:space="preserve" xmlns:serif="http://www.serif.com/" style="fill-rule:evenodd;clip-rule:evenodd;stroke-linejoin:round;stroke-miterlimit:2;">
    <g transform="matrix(1,0,0,1,-548.656,-338.834)">
        <g id="Signiture" transform="matrix(0.44,0,0,0.216309,548.656,338.834)">
            <rect x="0" y="0" width="500" height="500" style="fill:none;"/>
            <g transform="matrix(1.51727,0,0,1.51727,-117.474,-184.873)">
                <g transform="matrix(2.27273,0,0,4.62301,-1246.95,-1566.43)">
                    <path d="M619.344,372.261C618.642,373.27 617.296,375.78 617.18,376.304C616.262,380.436 615.874,384.39 615.874,388.625C615.874,396.5 618.552,403.782 620.059,411.317C620.358,412.813 621.089,414.213 621.728,415.614C622.503,417.312 623.15,419.012 623.15,420.793C623.15,421.598 622.497,422.252 621.692,422.252C620.887,422.252 620.234,421.598 620.234,420.793C620.234,419.422 619.671,418.132 619.074,416.825C618.342,415.221 617.541,413.602 617.199,411.889C615.654,404.167 612.958,396.696 612.958,388.625C612.958,384.173 613.367,380.016 614.333,375.672C614.456,375.118 615.615,372.762 616.511,371.284C617.022,370.443 617.531,369.866 617.752,369.722C618.28,369.374 618.752,369.429 619.077,369.536C619.492,369.672 619.97,369.97 620.094,370.746C620.194,371.375 619.876,371.975 619.344,372.261ZM617.245,371.353C617.27,371.45 617.303,371.537 617.342,371.614C617.302,371.532 617.269,371.444 617.245,371.353ZM617.23,371.294L617.244,371.348L617.228,371.284L617.23,371.294Z" style="fill:rgb(246,246,246);"/>
                </g>
                <g transform="matrix(2.27273,0,0,4.62301,-1246.95,-1566.43)">
                    <path d="M612.263,422.647C612.495,422.49 612.775,422.399 613.076,422.399C615.76,422.399 620.683,420.242 623.338,418.915C623.753,418.707 625.37,417.727 626.556,417.404C627.655,417.104 628.552,417.358 629.042,417.847C629.327,418.132 629.655,418.789 629.5,419.749C629.277,421.123 628.055,423.966 627.783,424.509C627.392,425.292 627.217,426.253 627.052,427.221C626.854,428.376 626.682,429.544 626.36,430.546C626.365,430.71 626.401,431.865 626.375,432.438C626.339,433.234 626.05,433.816 625.787,434.079C625.38,434.486 624.867,434.66 624.268,434.586C623.977,434.551 623.641,434.437 623.307,434.25C622.959,434.054 622.414,433.632 622.31,433.55C620.501,432.625 617.807,430.46 616.257,428.909C615.283,427.936 614.245,427.082 613.248,426.091C613.139,426.042 612.412,425.71 612.156,425.563C611.791,425.353 611.572,425.099 611.458,424.912C611.199,424.485 611.177,424.062 611.299,423.664C611.393,423.358 611.597,422.935 612.219,422.664L612.263,422.647ZM626.168,420.805C625.511,421.111 624.824,421.432 624.642,421.523C622.508,422.59 619.049,424.072 616.149,424.828C616.88,425.503 617.616,426.144 618.319,426.847C619.629,428.156 621.853,429.985 623.435,430.846L623.434,430.765C623.434,430.313 623.489,429.939 623.564,429.715C624.222,427.741 624.245,425.065 625.175,423.205C625.32,422.913 625.791,421.847 626.168,420.805Z" style="fill:rgb(246,246,246);"/>
                </g>
                <g transform="matrix(2.27273,0,0,4.62301,-1246.95,-1566.43)">
                    <path d="M650.007,383.917C650.264,384.293 650.306,384.796 650.073,385.222C649.961,385.428 649.93,385.91 649.93,385.91C649.847,386.572 649.258,387.051 648.593,387C647.928,386.948 647.421,386.383 647.441,385.716C647.441,385.716 647.526,382.866 647.635,381.445C647.878,378.298 648.124,375.169 648.81,372.079C648.934,371.524 649.25,369.645 649.915,368.561C650.428,367.725 651.146,367.27 651.945,367.27C652.629,367.27 653.245,367.671 653.586,368.482C653.9,369.231 653.944,370.51 653.959,370.74C654.023,371.762 653.652,374.83 653.744,377.385C654.024,376.199 654.41,374.675 654.97,373.553C655.463,372.564 656.123,371.86 656.842,371.572C657.768,371.202 658.524,371.496 659.096,372.262C659.665,373.024 659.944,374.646 660.057,375.133C660.814,378.416 661.046,381.996 661.046,385.37C661.046,386.06 660.486,386.62 659.796,386.62C659.106,386.62 658.546,386.06 658.546,385.37C658.546,382.181 658.337,378.797 657.621,375.695C657.575,375.495 657.508,375.059 657.395,374.594C657.382,374.541 657.364,374.48 657.343,374.417C657.194,374.669 657.064,374.963 656.943,375.274C656.38,376.727 656.06,378.543 655.832,379.381C655.802,379.491 655.651,380.265 655.433,380.878C655.287,381.289 655.097,381.642 654.915,381.858C654.367,382.51 653.721,382.582 653.11,382.276C652.661,382.051 652.273,381.671 651.979,381.131C651.685,380.587 651.477,379.842 651.362,378.974C651.055,376.638 651.407,373.254 651.463,371.572C651.359,372.031 651.294,372.426 651.251,372.621C650.59,375.595 650.361,378.607 650.128,381.637C650.081,382.246 650.039,383.124 650.007,383.917Z" style="fill:rgb(246,246,246);"/>
                </g>
                <g transform="matrix(2.27273,0,0,4.62301,-1246.95,-1566.43)">
                    <path d="M669.52,383.862C669.047,384.694 668.149,385.666 667.161,386.161C666.082,386.702 664.939,386.72 663.993,385.963C663.293,385.403 662.891,384.597 662.736,383.686C662.552,382.602 662.733,381.36 662.998,380.432C663.064,380.2 663.452,378.78 663.617,378.46C663.836,378.034 664.147,377.881 664.298,377.819C664.714,377.65 665.092,377.702 665.435,377.913C665.61,378.021 665.957,378.255 666.035,378.861C666.078,379.198 665.983,379.521 665.793,379.773L665.402,381.118C665.252,381.642 665.128,382.311 665.165,382.944C665.189,383.355 665.25,383.767 665.555,384.011C665.628,384.069 665.715,384.045 665.799,384.022C665.984,383.971 666.165,383.868 666.338,383.746C666.841,383.392 667.289,382.872 667.418,382.486C667.541,382.118 667.673,381.551 667.595,381.139C667.526,381.018 667.223,380.491 667.197,380.423C666.918,379.677 667.335,379.228 667.507,379.065C667.61,378.968 668.427,378.255 669.296,379.125C670.614,380.443 672.219,383.17 672.936,385.833C673.461,387.786 673.484,389.702 672.785,391.099C671.997,392.676 670.124,393.855 668.085,394.255C666.015,394.661 663.843,394.249 662.55,392.956C662.062,392.468 662.062,391.676 662.55,391.188C663.038,390.7 663.83,390.7 664.318,391.188C665.078,391.948 666.387,392.04 667.604,391.802C668.851,391.557 670.067,390.945 670.549,389.981C671.013,389.053 670.87,387.779 670.521,386.482C670.282,385.593 669.929,384.692 669.52,383.862ZM663.566,379.248C663.59,379.38 663.629,379.489 663.676,379.578C663.625,379.476 663.587,379.365 663.566,379.248Z" style="fill:rgb(246,246,246);"/>
                </g>
                <g transform="matrix(2.27273,0,0,4.62301,-1246.95,-1566.43)">
                    <path d="M651.418,402.899C651.516,402.948 651.669,403.02 651.778,403.057C652.372,403.259 653.029,403.398 653.41,403.567C656.292,404.848 658.437,407.067 657.562,410.565C657.071,412.528 654.885,413.763 652.556,413.867C650.215,413.973 647.94,412.922 647.313,411.04C647.095,410.386 647.449,409.678 648.104,409.459C648.758,409.241 649.467,409.595 649.685,410.25C649.811,410.63 650.144,410.875 650.534,411.051C651.089,411.303 651.769,411.4 652.443,411.37C653.118,411.34 653.791,411.181 654.328,410.877C654.714,410.658 655.034,410.368 655.137,409.959C655.667,407.836 654.144,406.629 652.395,405.852C651.869,405.618 650.809,405.443 650.14,405.06C649.54,404.717 649.151,404.238 649.009,403.672C648.847,403.021 648.921,402.25 649.219,401.472C649.582,400.527 650.277,399.558 651.065,398.859C652.179,397.872 653.496,397.5 654.451,397.851C655.099,398.088 655.431,398.807 655.193,399.455C654.96,400.091 654.261,400.423 653.623,400.209C653.588,400.217 653.423,400.259 653.329,400.306C653.125,400.407 652.92,400.556 652.723,400.73C652.227,401.17 651.782,401.773 651.553,402.367C651.482,402.553 651.423,402.733 651.418,402.899Z" style="fill:rgb(246,246,246);"/>
                </g>
                <g transform="matrix(2.27273,0,0,4.62301,-1246.95,-1566.43)">
                    <path d="M662.205,409.159C662.006,408.366 661.986,408.33 661.821,407.422C661.611,406.268 661.436,405.114 661.244,403.958C660.944,402.159 661.035,400.574 661.035,398.926C661.035,398.236 661.596,397.676 662.286,397.676C662.975,397.676 663.535,398.237 663.535,398.927C663.535,400.366 663.444,401.754 663.672,403.307C664.472,401.99 665.726,401.174 667.7,401.569C668.333,401.695 668.867,402.145 669.183,402.874C669.594,403.824 669.585,405.363 669.434,405.97C669.178,406.993 668.699,407.968 668.29,408.827C668.108,409.21 667.923,409.741 667.836,410.002C667.905,410.026 667.987,410.05 668.058,410.064C668.397,410.131 668.828,410.161 669.37,410.161C670.06,410.161 670.62,410.721 670.62,411.411C670.62,412.101 670.06,412.661 669.37,412.661C667.243,412.661 666.209,412.117 665.751,411.541C665.29,410.962 665.165,410.223 665.4,409.332C665.673,408.297 666.626,406.893 667.008,405.364C667.061,405.153 667.061,404.72 667.001,404.313C666.986,404.215 666.949,404.082 666.918,403.98C666.696,403.965 666.504,403.993 666.339,404.072C665.945,404.261 665.729,404.678 665.555,405.135C665.116,406.284 665.067,407.754 665.067,408.73L665.067,411.411C665.067,412.101 664.507,412.661 663.817,412.661C663.468,412.661 662.944,412.54 662.629,411.894C662.546,411.725 662.446,411.379 662.384,410.95C662.299,410.366 662.215,409.292 662.205,409.159Z" style="fill:rgb(246,246,246);"/>
                </g>
                <g transform="matrix(2.27273,0,0,4.62301,-1246.95,-1566.43)">
                    <path d="M673.869,410.351C673.679,410.07 673.419,409.678 673.379,409.578C672.973,408.563 672.552,407.335 672.518,406.265C672.495,405.575 673.037,404.997 673.726,404.975C674.416,404.952 674.994,405.494 675.016,406.184C675.041,406.953 675.37,407.82 675.665,408.56C675.774,408.709 676.216,409.323 676.353,409.625C676.484,409.915 676.523,410.18 676.516,410.38C676.501,410.818 676.317,411.149 676.019,411.392C675.821,411.553 675.539,411.704 675.114,411.704C674.424,411.704 673.864,411.144 673.864,410.454C673.864,410.419 673.865,410.385 673.869,410.351ZM674.96,409.213L674.955,409.214L674.966,409.213L674.96,409.213ZM675.035,409.206L675.019,409.208L675.042,409.206L675.035,409.206Z" style="fill:rgb(246,246,246);"/>
                </g>
                <g transform="matrix(2.27273,0,0,4.62301,-1246.95,-1566.43)">
                    <path d="M673.915,400.374C673.929,400.364 673.942,400.353 673.956,400.343C674.505,399.925 674.612,399.14 674.194,398.591C673.776,398.042 672.991,397.936 672.442,398.353C672.428,398.364 672.415,398.374 672.401,398.385C671.852,398.803 671.745,399.588 672.163,400.137C672.581,400.686 673.366,400.792 673.915,400.374Z" style="fill:rgb(246,246,246);"/>
                </g>
                <g transform="matrix(2.27273,0,0,4.62301,-1246.95,-1566.43)">
                    <path d="M678.962,399.538C678.544,400.881 678.746,402.578 679.21,404.37C679.78,406.576 680.757,408.957 680.757,410.837C680.757,411.527 681.317,412.087 682.007,412.087C682.697,412.087 683.257,411.527 683.257,410.837C683.257,409.095 682.555,406.955 681.944,404.873C681.446,403.175 680.961,401.53 681.349,400.282C681.554,399.623 681.186,398.922 680.527,398.716C679.869,398.511 679.167,398.88 678.962,399.538Z" style="fill:rgb(246,246,246);"/>
                </g>
                <g transform="matrix(2.27273,0,0,4.62301,-1246.95,-1566.43)">
                    <path d="M684.15,400.233C684.069,399.781 684.243,399.301 684.637,399.01C685.191,398.599 685.975,398.717 686.385,399.271C686.473,399.389 686.616,399.624 686.645,400C686.674,400.368 686.468,401.754 686.505,402.082C686.601,402.949 687.55,405.852 688.347,407.765C688.533,408.213 688.791,408.715 688.93,408.976C689.03,409.031 689.125,409.102 689.21,409.187C689.698,409.675 689.698,410.467 689.21,410.955C688.901,411.264 688.54,411.378 688.145,411.343C687.895,411.321 687.562,411.223 687.239,410.903C686.954,410.621 686.489,409.807 686.039,408.726C685.148,406.587 684.128,403.327 684.02,402.358C683.985,402.046 684.125,400.496 684.15,400.233ZM687.732,408.971C687.647,409.015 687.566,409.072 687.489,409.142C687.564,409.075 687.645,409.017 687.732,408.971ZM687.763,408.955L687.76,408.956L687.763,408.955Z" style="fill:rgb(246,246,246);"/>
                </g>
                <g transform="matrix(2.27273,0,0,4.62301,-1246.95,-1566.43)">
                    <path d="M693.185,402.522C693.298,402.923 693.619,403.141 693.971,403.347C694.38,403.585 694.847,403.783 695.315,404.001C696.905,404.742 698.442,405.695 698.928,407.885C699.343,409.751 697.899,411.504 695.841,412.34C694.765,412.776 693.566,412.962 692.567,412.839C691.723,412.736 691.007,412.414 690.506,411.912C690.018,411.424 690.018,410.632 690.506,410.144C690.993,409.656 691.786,409.656 692.273,410.144C692.472,410.343 692.804,410.371 693.157,410.377C693.714,410.386 694.333,410.253 694.9,410.023C695.43,409.808 695.92,409.511 696.24,409.133C696.417,408.924 696.547,408.692 696.488,408.427C696.298,407.573 695.773,407.1 695.183,406.744C694.644,406.419 694.052,406.178 693.504,405.918C692.172,405.285 691.102,404.5 690.751,403.098C690.545,402.273 690.858,401.248 691.566,400.345C692.423,399.251 693.804,398.361 694.57,398.204C695.125,398.091 695.564,398.221 695.865,398.424C696.179,398.636 696.418,398.95 696.5,399.416C696.618,400.096 696.163,400.744 695.483,400.862C695.258,400.902 695.036,400.878 694.836,400.803C694.492,401.029 693.857,401.474 693.533,401.887C693.419,402.033 693.319,402.182 693.249,402.331C693.222,402.389 693.194,402.49 693.185,402.522Z" style="fill:rgb(246,246,246);"/>
                </g>
            </g>
        </g>
    </g>
</svg>
