<?xml version="1.0" encoding="UTF-8" standalone="no"?>
<!DOCTYPE svg PUBLIC "-//W3C//DTD SVG 1.1//EN" "http://www.w3.org/Graphics/SVG/1.1/DTD/svg11.dtd">
<svg width="100%" height="100%" viewBox="0 0 116 116" version="1.1" xmlns="http://www.w3.org/2000/svg" xmlns:xlink="http://www.w3.org/1999/xlink" xml:space="preserve" xmlns:serif="http://www.serif.com/" style="fill-rule:evenodd;clip-rule:evenodd;stroke-linejoin:round;stroke-miterlimit:2;">
    <g transform="matrix(1,0,0,1,0,-321)">
        <g id="code-icon" serif:id="code icon" transform="matrix(1,0,0,1,0,152)">
            <rect x="0" y="169" width="116" height="116" style="fill:none;"/>
            <g transform="matrix(1,0,0,1,0,-152)">
                <circle cx="58" cy="379" r="58" style="fill:rgb(240,240,240);"/>
            </g>
            <g id="code-tags" transform="matrix(3.88193,0,0,3.88193,11.4168,180.417)">
                <path d="M14.6,16.6L19.2,12L14.6,7.4L16,6L22,12L16,18L14.6,16.6ZM9.4,16.6L4.8,12L9.4,7.4L8,6L2,12L8,18L9.4,16.6Z" style="fill:rgb(30,57,55);fill-rule:nonzero;"/>
            </g>
        </g>
    </g>
</svg>
