<?xml version="1.0" encoding="UTF-8" standalone="no"?>
<!DOCTYPE svg PUBLIC "-//W3C//DTD SVG 1.1//EN" "http://www.w3.org/Graphics/SVG/1.1/DTD/svg11.dtd">
<svg width="100%" height="100%" viewBox="0 0 116 116" version="1.1" xmlns="http://www.w3.org/2000/svg" xmlns:xlink="http://www.w3.org/1999/xlink" xml:space="preserve" xmlns:serif="http://www.serif.com/" style="fill-rule:evenodd;clip-rule:evenodd;stroke-linejoin:round;stroke-miterlimit:2;">
    <g transform="matrix(1,0,0,1,0,-462)">
        <g id="code-icon" serif:id="code icon" transform="matrix(1,0,0,1,0,293)">
            <rect x="0" y="169" width="116" height="116" style="fill:none;"/>
            <g transform="matrix(1,0,0,1,0,-152)">
                <circle cx="58" cy="379" r="58" style="fill:rgb(240,240,240);"/>
            </g>
            <g id="monitor" transform="matrix(2.80176,0,0,2.80176,24.3806,193.384)">
                <path d="M20.999,15.998L2.999,15.998L2.999,3.998L20.999,3.998M20.999,1.998L2.999,1.998C1.894,1.998 0.999,2.894 0.999,3.998L0.999,15.998C0.999,17.103 1.894,17.998 2.999,17.998L9.999,17.998L9.999,19.998L7.999,19.998L7.999,21.998L15.999,21.998L15.999,19.998L13.999,19.998L13.999,17.998L20.999,17.998C22.103,17.998 22.999,17.103 22.999,15.998L22.999,3.998C22.999,2.894 22.103,1.998 20.999,1.998Z" style="fill:rgb(30,57,55);fill-rule:nonzero;"/>
            </g>
        </g>
    </g>
</svg>
